<svg viewBox="0 0 48 48" xml:space="preserve" xmlns="http://www.w3.org/2000/svg"><path d="M28.2 15.4c.2 6.4-3.7 11.1-9.8 12.3l-2.4-7h-2.6l-1.7-4.9-1.2-3.3L8 5.7s2.7 0 3-1c.1-.4-.3-1.4 0-1.7 2.4-2.5 10-.8 13.6 3.6 2.1 2.3 3.5 5.4 3.6 8.8z" fill="#7fba64" class="fill-ff7058"></path><path d="M5.1 19.7c.1.3.1.6.2.9-1.7-1.3-2.9-3.2-3.2-5.4C1.5 11 4 7 8 5.7l2.4 6.7c-3.5.6-5.8 3.9-5.3 7.3zM28.2 15.4c.2 6.4-3.7 11.1-9.8 12.3l-2.4-7c1.9-.1 3.6-1.1 5-2.6.5-.5.9-1.1 1.3-1.7.1-.2.2-.3.3-.5.2-.3.4-.6.5-1 .2-.5.5-1 .6-1.5.7-1.8 1-3.7 1-5.4 0-.5-.1-.9-.2-1.4 2.2 2.3 3.6 5.4 3.7 8.8z" fill="#40596B" class="fill-40596b"></path><path d="M24.7 8.1c0 1.7-.3 3.6-1 5.4l-.6 1.5c-.2.3-.3.6-.5 1-.1.1-.2.3-.3.5-.4.6-.8 1.2-1.3 1.7-1.4 1.5-3.1 2.5-5 2.6h-2.6l-1.8-4.9-1.2-3.3L8 5.7s2.7 0 3-1c.1-.4-.3-1.4 0-1.7 2.4-2.5 10-.8 13.6 3.6 0 .5.1 1 .1 1.5z" fill="#F2F2F2" class="fill-f2f2f2"></path><path d="M24.5 6.7C21 2.2 13.3.5 11 3c-.1.1-.1.3-.1.6 3.1-1.2 9.2.6 12.3 4.4.1.5.1.9.2 1.4 0 1.7-.3 3.6-1 5.4l-.6 1.5c-.2.3-.3.6-.5 1-.1.1-.2.3-.3.5-.3.5-.6.9-1 1.3.4-.3.7-.6 1.1-1 .5-.5.9-1.1 1.3-1.7.1-.2.2-.3.3-.5.2-.3.4-.6.5-1 .2-.5.5-1 .6-1.5.7-1.8 1-3.7 1-5.4-.1-.4-.2-.9-.3-1.3z" fill="#231F20" opacity=".05" class="fill-231f20"></path><path d="M6.3 18.8c-.2-.1-.4-.1-.6-.2.8 1.2 2 2.1 3.4 2.5 1.5.4 2.9.2 4.2-.5l-1.7-4.8c-.7 2.3-3 3.6-5.3 3z" fill="#40596B" class="fill-40596b"></path><circle cx="15.7" cy="7.6" fill="#84DBFF" r="2.6" class="fill-84dbff"></circle><circle cx="15.7" cy="7.6" fill="#40596B" r="1.6" class="fill-40596b"></circle><circle cx="14.8" cy="6.6" fill="#FFFFFF" r=".6" class="fill-ffffff"></circle><path d="M45.9 47.9c0-4.3-1.1-13.1-7.7-21 .5-7.5-1.5-13-4.2-17-3.5-5.3-9.3-9-15.6-9.7 4.5 3.2 6 6.4 6 6.4 2.2 2.3 3.6 5.3 3.7 8.7.2 6.4-3.7 11.1-9.8 12.3 0 0-5.7 9.6-3.3 20.2h30.9z" fill="#7fba64" class="fill-ff7058"></path><path d="M18.5.2c-.7-.1-1.4-.1-2.1-.1-3.8 0-5.8 1-6.9 2.5C8.2 4.5 8 5.7 8 5.7s2.7 0 3-1c.1-.4-.3-1.4 0-1.7 2.4-2.5 10-.8 13.6 3.6-.1.1-1.6-3.2-6.1-6.4z" fill="#64aaba" class="fill-54c0eb"></path><path d="M25.8 47.9h19.6c-1.1-4.4-3.1-10.4-6.3-14.3-4.4-5.2-13.1-2.9-14 3.9-.3 2.4-.2 5.6.6 9.7.1 0 .1.3.1.7z" fill="#9f64ba" class="fill-ffd15c"></path><path d="M25.8 47.9h1.7c-.6-3.4-.6-6.2-.3-8.3.8-6.1 8-8.6 12.6-5.1-.2-.3-.4-.6-.7-.9-4.4-5.2-13.1-2.9-14 3.9-.3 2.4-.2 5.6.6 9.7.1 0 .1.3.1.7z" fill="#231F20" opacity=".05" class="fill-231f20"></path></svg>