<?xml version="1.0" ?><!DOCTYPE svg  PUBLIC '-//W3C//DTD SVG 1.1//EN'  'http://www.w3.org/Graphics/SVG/1.1/DTD/svg11.dtd'><svg enable-background="new 0 0 258 258" id="Layer_1" version="1.1" viewBox="0 0 258 258" xml:space="preserve" xmlns="http://www.w3.org/2000/svg" xmlns:xlink="http://www.w3.org/1999/xlink"><g id="XMLID_584_"><circle cx="129.103" cy="132.176" fill="#FDDA7F" r="125.824"/><path d="M36.543,217.397C59.536,242.358,92.49,258,129.103,258s69.567-15.642,92.56-40.603H36.543z" fill="#F7BB52"/><g id="XMLID_586_"><g id="XMLID_587_"><g id="XMLID_588_"><g id="XMLID_589_"><path d="M91.699,52.218c0,8.454-6.859,15.313-15.32,15.313H17.429       c-9.273,0-16.79-7.518-16.79-16.79c0-8.03,5.638-14.743,13.17-16.395C9.889,20.597,20.251,6.82,34.615,6.82       c7.43,0,13.982,3.744,17.88,9.448c3.459-0.951,7.21-1.031,10.933-0.073c9.755,2.516,16.198,11.364,16.052,21.01       C86.455,38.646,91.699,44.818,91.699,52.218z" fill="#F2F2F2" id="XMLID_590_"/></g></g><g id="XMLID_591_"><g id="XMLID_592_"><path d="M20.843,54.331v-12.64h2.134v5.479h6.275v-5.479h2.134v12.64h-2.134V49.16h-6.275       v5.172H20.843z" fill="#464E58" id="XMLID_593_"/></g><g id="XMLID_595_"><path d="M39.668,43.644v10.688h-2.134V43.644h-3.834v-1.953h9.801v1.953H39.668z" fill="#464E58" id="XMLID_596_"/></g><g id="XMLID_598_"><path d="M47.95,54.331h-2.134v-12.64h3.327l3.816,7.938l3.816-7.938h3.309v12.64H57.95v-9.874       l-4.412,8.771h-1.193l-4.394-8.771V54.331z" fill="#464E58" id="XMLID_599_"/></g><g id="XMLID_601_"><path d="M63.592,54.331v-12.64h2.134v10.615h5.769v2.025H63.592z" fill="#464E58" id="XMLID_602_"/></g></g></g><g id="XMLID_15762_"><g id="XMLID_15763_"><g id="XMLID_15764_"><g id="XMLID_15771_"><g id="XMLID_15772_"><g id="XMLID_15773_"><path d="M138.028,37.394l5.765-3.216l-1.729-5.805l-6.583,0.446          c-0.811-1.319-1.796-2.552-2.958-3.643l1.807-6.334l-5.337-2.892l-4.318,4.968c-1.552-0.374-3.1-0.53-4.655-0.481          l-3.227-5.754l-5.805,1.718l0.446,6.583c-1.33,0.811-2.541,1.797-3.643,2.947l-6.335-1.784l-2.88,5.315l4.956,4.329          c-0.362,1.541-0.519,3.112-0.47,4.667l-5.765,3.216l1.729,5.805l6.583-0.446c0.799,1.33,1.785,2.552,2.935,3.643          l-1.796,6.334l5.326,2.892l4.33-4.967c1.541,0.362,3.123,0.531,4.666,0.482l3.216,5.754l5.816-1.717l-0.457-6.584          c1.33-0.811,2.564-1.807,3.655-2.958l6.334,1.796l2.88-5.314l-4.956-4.329C137.921,40.508,138.089,38.949,138.028,37.394z           M126.274,41.03c-1.709,3.162-5.679,4.338-8.84,2.618c-3.162-1.709-4.338-5.667-2.618-8.829          c1.709-3.162,5.667-4.338,8.829-2.63C126.807,33.91,127.983,37.868,126.274,41.03z" fill="#464E58" id="XMLID_15774_"/></g></g></g><g id="XMLID_15765_"><g id="XMLID_15766_"><g id="XMLID_15767_"><path d="M172.118,28.905l2.25-4.151l-3.872-3.384c0.286-1.206,0.416-2.422,0.371-3.635          l4.496-2.513l-1.347-4.534l-5.139,0.349c-0.629-1.033-1.405-1.993-2.304-2.848l1.404-4.945l-4.16-2.254l-3.376,3.876          c-1.206-0.286-2.422-0.416-3.635-0.371L154.293,0l-4.534,1.347l0.349,5.138c-1.041,0.625-1.989,1.397-2.843,2.295          l-4.949-1.396l-2.25,4.151l3.876,3.376c-0.286,1.206-0.412,2.435-0.375,3.644l-4.496,2.513l1.347,4.534l5.139-0.349          c0.625,1.041,1.397,1.989,2.295,2.843l-1.404,4.945l4.16,2.254l3.376-3.876c1.206,0.286,2.435,0.412,3.644,0.375          l2.513,4.496l4.534-1.347l-0.349-5.138c1.033-0.629,1.993-1.405,2.848-2.304L172.118,28.905z M154.789,22.616          c-2.464-1.335-3.383-4.426-2.043-6.899c1.335-2.464,4.426-3.383,6.891-2.047c2.473,1.34,3.391,4.431,2.056,6.895          C160.352,23.037,157.261,23.956,154.789,22.616z" fill="#7CCEDC" id="XMLID_15768_"/></g></g></g></g></g></g><g id="XMLID_604_"><g id="XMLID_605_"><g id="XMLID_606_"><rect fill="#F37C5A" height="37.186" id="XMLID_607_" width="58.681" x="196.245" y="51.416"/></g></g><g id="XMLID_608_"><polygon fill="#FFFFFF" id="XMLID_609_" points="219.644,61.558 219.644,78.459 232.289,70.009     "/></g></g><g id="XMLID_610_"><g id="XMLID_611_"><g id="XMLID_612_"><g id="XMLID_613_"><g id="XMLID_614_"><g id="XMLID_615_"><g id="XMLID_616_"><g id="XMLID_617_"><rect fill="#DAD9D8" height="24.403" id="XMLID_9698_" width="35.818" x="70.487" y="190.531"/></g><g id="XMLID_618_"><g id="XMLID_619_"><g id="XMLID_620_"><path d="M166.567,83.284v93.149H10.224V83.284c0-3.403,2.762-6.165,6.165-6.165h144.013              C163.805,77.119,166.567,79.881,166.567,83.284z" fill="#464E58" id="XMLID_621_"/></g><path d="M166.567,176.433v17.565c0,3.403-2.762,6.165-6.165,6.165H16.389             c-3.403,0-6.165-2.762-6.165-6.165v-17.565H166.567z" fill="#F2F2F2" id="XMLID_622_"/></g><path d="M88.396,184.276c-2.222,0-4.029,1.794-4.029,4.015c0,2.235,1.808,4.029,4.029,4.029            c2.222,0,4.029-1.794,4.029-4.029C92.425,186.07,90.617,184.276,88.396,184.276z" fill="#464E58"/></g><path d="M54.127,217.397L54.127,217.397l68.537,0v0c0-4.71-3.819-8.529-8.529-8.529H62.656           C57.946,208.868,54.127,212.687,54.127,217.397z" fill="#F2F2F2" id="XMLID_624_"/></g><rect fill="#F2F2F2" height="83.301" id="XMLID_625_" width="140.329" x="18.231" y="85.126"/><path d="M88.487,144.755c-11.956,0-21.656-9.699-21.656-21.662          c0-11.956,9.699-21.656,21.655-21.656c11.962,0,21.662,9.7,21.662,21.656C110.149,135.056,100.449,144.755,88.487,144.755z" fill="#25313B" id="XMLID_9697_"/><g id="XMLID_626_"><g id="XMLID_627_"><g id="XMLID_628_"><rect fill="#F37C5A" height="2.485" id="XMLID_629_" width="9.376" x="79.443" y="108.054"/><rect fill="#F37C5A" height="2.475" id="XMLID_630_" width="7.191" x="97.173" y="124.401"/></g></g><g id="XMLID_631_"><g id="XMLID_632_"><g id="XMLID_633_"><rect fill="#7CCEDC" height="2.475" id="XMLID_634_" width="11.469" x="65.735" y="108.054"/><rect fill="#7CCEDC" height="2.475" id="XMLID_635_" width="10.083" x="72.622" y="124.401"/><rect fill="#FFFFFF" height="2.475" id="XMLID_636_" width="9.826" x="84.819" y="124.401"/><rect fill="#FFFFFF" height="2.475" id="XMLID_637_" width="4.186" x="73.633" y="132.36"/><rect fill="#F37C5A" height="2.485" id="XMLID_638_" width="11.804" x="85.969" y="136.505"/><rect fill="#F37C5A" height="2.475" id="XMLID_639_" width="6.874" x="74.523" y="116.227"/></g></g></g><g id="XMLID_640_"><g id="XMLID_641_"><rect fill="#FFFFFF" height="2.475" id="XMLID_642_" width="5.977" x="65.735" y="132.36"/><rect fill="#FFFFFF" height="2.475" id="XMLID_643_" width="4.824" x="65.735" y="124.401"/><rect fill="#FFFFFF" height="2.485" id="XMLID_644_" width="15.255" x="68.652" y="136.505"/><rect fill="#F37C5A" height="2.485" id="XMLID_645_" width="21.132" x="65.002" y="128.478"/><rect fill="#7CCEDC" height="2.475" id="XMLID_646_" width="9.874" x="79.599" y="132.36"/><rect fill="#FFFFFF" height="2.475" id="XMLID_647_" width="6.503" x="65.735" y="116.227"/><g id="XMLID_648_"><rect fill="#FFFFFF" height="2.487" id="XMLID_649_" width="9.851" x="90.887" y="108.053"/></g></g></g></g></g></g></g></g><g id="XMLID_650_"><rect fill="#DAD9D8" height="1.509" id="XMLID_9696_" width="7.172" x="90.12" y="92.199"/><rect fill="#464E58" height="1.509" id="XMLID_9695_" width="4.31" x="73.215" y="92.199"/><rect fill="#DAD9D8" height="1.509" id="XMLID_9694_" width="8.118" x="63.957" y="92.199"/><rect fill="#DAD9D8" height="1.509" id="XMLID_9693_" width="5.754" x="57.064" y="92.199"/><rect fill="#464E58" height="1.509" id="XMLID_9692_" width="4.629" x="48.085" y="92.199"/><rect fill="#DAD9D8" height="1.509" id="XMLID_9691_" width="7.816" x="39.13" y="92.199"/><g id="XMLID_651_"><g id="XMLID_652_"><rect fill="#7CCEDC" height="1.512" id="XMLID_653_" width="10.312" x="78.669" y="92.197"/></g><rect fill="#F37C5A" height="1.509" id="XMLID_9690_" width="2.07" x="53.854" y="92.199"/><g id="XMLID_654_"><rect fill="#DAD9D8" height="1.506" id="XMLID_655_" width="12.042" x="25.951" y="92.202"/></g></g><rect fill="#DAD9D8" height="1.509" id="XMLID_9689_" width="4.31" x="25.951" y="96.285"/><rect fill="#464E58" height="1.501" id="XMLID_656_" width="13.563" x="31.473" y="96.289"/><rect fill="#7CCEDC" height="1.501" id="XMLID_657_" width="3.639" x="46.12" y="96.289"/><rect fill="#DAD9D8" height="1.509" id="XMLID_9688_" width="13.442" x="50.904" y="96.285"/><rect fill="#464E58" height="1.509" id="XMLID_9687_" width="5.449" x="65.486" y="96.285"/><rect fill="#DAD9D8" height="1.509" id="XMLID_9686_" width="4.31" x="72.075" y="96.285"/><rect fill="#DAD9D8" height="1.506" id="XMLID_658_" width="15.009" x="57.063" y="100.37"/><rect fill="#DAD9D8" height="1.512" id="XMLID_659_" width="12.466" x="43.461" y="100.368"/><rect fill="#F37C5A" height="1.506" id="XMLID_660_" width="6.479" x="35.833" y="100.37"/><rect fill="#DAD9D8" height="1.509" id="XMLID_9685_" width="8.744" x="25.951" y="100.37"/><rect fill="#DAD9D8" height="1.502" id="XMLID_661_" width="12.206" x="25.951" y="104.459"/><rect fill="#464E58" height="1.502" id="XMLID_662_" width="4.897" x="39.685" y="104.459"/><rect fill="#DAD9D8" height="1.512" id="XMLID_663_" width="13.761" x="45.723" y="104.458"/><g id="XMLID_664_"><rect fill="#464E58" height="1.512" id="XMLID_665_" width="6.52" x="60.615" y="104.458"/></g><rect fill="#F37C5A" height="1.512" id="XMLID_666_" width="6.587" x="49.009" y="108.537"/><rect fill="#DAD9D8" height="1.512" id="XMLID_667_" width="5.824" x="56.989" y="108.537"/><rect fill="#DAD9D8" height="1.512" id="XMLID_668_" width="12.042" x="35.835" y="108.537"/><rect fill="#464E58" height="1.509" id="XMLID_9684_" width="8.744" x="25.951" y="108.541"/><g id="XMLID_669_"><rect fill="#464E58" height="1.517" id="XMLID_670_" width="4.593" x="25.951" y="112.623"/><rect fill="#DAD9D8" height="1.517" id="XMLID_671_" width="9.029" x="31.828" y="112.623"/><rect fill="#7CCEDC" height="1.517" id="XMLID_672_" width="8.76" x="42.406" y="112.623"/></g><rect fill="#F37C5A" height="1.512" id="XMLID_673_" width="8.963" x="53.849" y="116.707"/><rect fill="#DAD9D8" height="1.509" id="XMLID_9683_" width="6.995" x="45.719" y="116.712"/><rect fill="#F37C5A" height="1.512" id="XMLID_674_" width="10.707" x="25.947" y="116.707"/><rect fill="#464E58" height="1.512" id="XMLID_675_" width="6.386" x="38.195" y="116.707"/><rect fill="#DAD9D8" height="1.511" id="XMLID_676_" width="14.403" x="25.951" y="120.799"/><rect fill="#464E58" height="1.512" id="XMLID_677_" width="17.99" x="41.494" y="120.797"/><rect fill="#DAD9D8" height="1.501" id="XMLID_678_" width="12.324" x="50.489" y="124.887"/><g id="XMLID_679_"><rect fill="#DAD9D8" height="1.509" id="XMLID_9682_" width="10.215" x="39.13" y="124.883"/></g><rect fill="#464E58" height="1.509" id="XMLID_9681_" width="7.835" x="30.155" y="124.883"/><rect fill="#DAD9D8" height="1.509" id="XMLID_9680_" width="3.064" x="25.952" y="124.883"/><rect fill="#F37C5A" height="1.509" id="XMLID_9679_" width="6.128" x="25.952" y="128.968"/><rect fill="#DAD9D8" height="1.506" id="XMLID_680_" width="12.621" x="33.366" y="128.97"/><rect fill="#464E58" height="1.509" id="XMLID_9678_" width="12.35" x="47.129" y="128.968"/><rect fill="#F37C5A" height="1.509" id="XMLID_9677_" width="3.727" x="60.619" y="128.968"/><g id="XMLID_681_"><rect fill="#F37C5A" height="1.512" id="XMLID_682_" width="3.713" x="64.138" y="136.994"/></g><g id="XMLID_683_"><rect fill="#464E58" height="1.512" id="XMLID_684_" width="4.239" x="48.084" y="136.994"/><rect fill="#DAD9D8" height="1.512" id="XMLID_685_" width="9.289" x="53.524" y="136.994"/></g><g id="XMLID_686_"><rect fill="#DAD9D8" height="1.509" id="XMLID_9676_" width="7.816" x="39.13" y="136.996"/></g><g id="XMLID_687_"><g id="XMLID_688_"><rect fill="#7CCEDC" height="1.506" id="XMLID_689_" width="12.042" x="25.951" y="136.998"/></g></g><g id="XMLID_690_"><rect fill="#F37C5A" height="1.501" id="XMLID_691_" width="5.81" x="25.947" y="141.084"/><rect fill="#464E58" height="1.501" id="XMLID_692_" width="9.248" x="33.213" y="141.084"/></g><g id="XMLID_693_"><rect fill="#DAD9D8" height="1.501" id="XMLID_694_" width="11.344" x="43.615" y="141.084"/></g><g id="XMLID_695_"><rect fill="#464E58" height="1.509" id="XMLID_9675_" width="14.821" x="56.114" y="141.081"/></g><g id="XMLID_696_"><rect fill="#DAD9D8" height="1.509" id="XMLID_697_" width="12.688" x="62.24" y="145.167"/></g><g id="XMLID_698_"><rect fill="#DAD9D8" height="1.512" id="XMLID_699_" width="7.761" x="44.812" y="145.163"/><rect fill="#464E58" height="1.512" id="XMLID_700_" width="7.061" x="54.034" y="145.163"/></g><g id="XMLID_701_"><rect fill="#F37C5A" height="1.506" id="XMLID_702_" width="7.83" x="35.833" y="145.167"/></g><g id="XMLID_703_"><rect fill="#DAD9D8" height="1.509" id="XMLID_9674_" width="8.744" x="25.951" y="145.167"/></g><g id="XMLID_704_"><rect fill="#464E58" height="1.512" id="XMLID_705_" width="6.66" x="25.947" y="149.254"/><rect fill="#DAD9D8" height="1.512" id="XMLID_706_" width="6.113" x="33.919" y="149.254"/></g><g id="XMLID_707_"><rect fill="#DAD9D8" height="1.509" id="XMLID_9673_" width="9.998" x="41.17" y="149.252"/></g><g id="XMLID_708_"><rect fill="#DAD9D8" height="1.512" id="XMLID_709_" width="12.612" x="52.305" y="149.254"/></g><g id="XMLID_710_"><rect fill="#7CCEDC" height="1.512" id="XMLID_711_" width="10.334" x="66.054" y="149.254"/></g><g id="XMLID_712_"><rect fill="#F37C5A" height="1.509" id="XMLID_9672_" width="9.046" x="99.363" y="153.338"/></g><g id="XMLID_713_"><rect fill="#DAD9D8" height="1.512" id="XMLID_714_" width="4.514" x="93.706" y="153.333"/></g><g id="XMLID_715_"><rect fill="#DAD9D8" height="1.512" id="XMLID_716_" width="8.182" x="84.393" y="153.333"/></g><g id="XMLID_717_"><rect fill="#DAD9D8" height="1.506" id="XMLID_718_" width="8.662" x="63.015" y="153.335"/><rect fill="#464E58" height="1.506" id="XMLID_719_" width="10.285" x="72.969" y="153.335"/></g><g id="XMLID_720_"><rect fill="#DAD9D8" height="1.509" id="XMLID_9671_" width="6.761" x="55.112" y="153.338"/></g><g id="XMLID_721_"><rect fill="#7CCEDC" height="1.506" id="XMLID_722_" width="9.739" x="44.231" y="153.335"/></g><g id="XMLID_723_"><rect fill="#464E58" height="1.509" id="XMLID_724_" width="4.216" x="31.972" y="153.338"/><rect fill="#DAD9D8" height="1.509" id="XMLID_725_" width="5.751" x="37.343" y="153.338"/></g><g id="XMLID_726_"><rect fill="#F37C5A" height="1.512" id="XMLID_727_" width="4.884" x="25.947" y="153.333"/></g><g id="XMLID_728_"><rect fill="#DAD9D8" height="1.509" id="XMLID_9670_" width="3.707" x="55.664" y="132.846"/></g><g id="XMLID_729_"><rect fill="#F37C5A" height="1.509" id="XMLID_9669_" width="11.068" x="43.456" y="132.846"/></g><g id="XMLID_730_"><rect fill="#DAD9D8" height="1.506" id="XMLID_731_" width="6.479" x="35.833" y="132.846"/></g><g id="XMLID_732_"><rect fill="#464E58" height="1.509" id="XMLID_9668_" width="8.744" x="25.951" y="132.846"/></g><g id="XMLID_733_"><rect fill="#F37C5A" height="1.506" id="XMLID_734_" width="11.328" x="66.06" y="157.415"/></g><g id="XMLID_735_"><rect fill="#DAD9D8" height="1.509" id="XMLID_9667_" width="12.856" x="52.062" y="157.418"/></g><g id="XMLID_736_"><rect fill="#F37C5A" height="1.506" id="XMLID_737_" width="9.183" x="41.737" y="157.415"/></g><g id="XMLID_738_"><polygon fill="#464E58" id="XMLID_739_" points="33.468,157.418 25.947,157.412 25.947,158.924 33.468,158.924       "/><rect fill="#DAD9D8" height="1.505" id="XMLID_740_" width="5.809" x="34.794" y="157.419"/></g><g id="XMLID_741_"><g id="XMLID_742_"><rect fill="#464E58" height="1.501" id="XMLID_743_" width="9.759" x="48.443" y="161.502"/><rect fill="#DAD9D8" height="1.501" id="XMLID_744_" width="8.378" x="59.491" y="161.502"/></g></g><g id="XMLID_745_"><rect fill="#DAD9D8" height="1.512" id="XMLID_746_" width="3.92" x="25.947" y="161.491"/><rect fill="#7CCEDC" height="1.501" id="XMLID_747_" width="15.942" x="31.363" y="161.502"/></g></g></g><g id="XMLID_15542_"><rect fill="#25313B" height="10.805" transform="matrix(0.7071 -0.7071 0.7071 0.7071 -70.0135 120.0873)" width="10.134" x="104.885" y="139.155"/><path d="M88.487,95.05c-15.484,0-28.043,12.56-28.043,28.044c0,15.49,12.56,28.05,28.043,28.05      c15.49,0,28.05-12.56,28.05-28.05C116.537,107.61,103.977,95.05,88.487,95.05z M88.487,144.755      c-11.956,0-21.656-9.699-21.656-21.662c0-11.956,9.699-21.656,21.655-21.656c11.962,0,21.662,9.7,21.662,21.655      C110.149,135.056,100.449,144.755,88.487,144.755z" fill="#464E58"/><rect fill="#FDDA7F" height="33.225" transform="matrix(0.7071 -0.7071 0.7071 0.7071 -75.6139 133.6077)" width="15.798" x="115.573" y="141.465"/></g></g><g id="XMLID_748_"><circle cx="21.477" cy="165.541" fill="#7CCEDC" r="17.059"/><g id="XMLID_750_"><g id="XMLID_751_"><g id="XMLID_752_"><path d="M15.48,162.105c0.58,0.484,0.869,1.231,0.869,2.239s-0.296,1.747-0.887,2.215        c-0.592,0.469-1.499,0.703-2.722,0.703h-1.477v2.441H9.858v-8.325h2.858C13.979,161.379,14.9,161.621,15.48,162.105z         M14.486,165.541c0.282-0.298,0.422-0.734,0.422-1.31s-0.179-0.982-0.536-1.221c-0.357-0.238-0.917-0.357-1.679-0.357h-1.429        v3.335h1.632C13.673,165.988,14.204,165.839,14.486,165.541z" fill="#FFFFFF" id="XMLID_753_"/><path d="M18.005,169.704v-8.325h1.405v3.609h4.133v-3.609h1.405v8.325h-1.405v-3.406H19.41        v3.406H18.005z" fill="#FFFFFF" id="XMLID_756_"/><path d="M32.88,162.105c0.58,0.484,0.869,1.231,0.869,2.239s-0.296,1.747-0.887,2.215        c-0.592,0.469-1.499,0.703-2.722,0.703h-1.477v2.441h-1.405v-8.325h2.858C31.379,161.379,32.301,161.621,32.88,162.105z         M31.886,165.541c0.282-0.298,0.423-0.734,0.423-1.31s-0.179-0.982-0.536-1.221c-0.357-0.238-0.917-0.357-1.679-0.357h-1.429        v3.335h1.632C31.074,165.988,31.604,165.839,31.886,165.541z" fill="#FFFFFF" id="XMLID_758_"/></g></g></g></g><g id="XMLID_15520_"><g id="XMLID_15524_"><g id="XMLID_15525_"><path d="M173.399,55.61v2.651c5.518,0,10.186-3.65,11.706-8.675       c2.393,7.809-3.473,15.79-11.706,15.79v2.65l-9.014-6.206L173.399,55.61z" fill="#464E58" id="XMLID_9661_"/></g></g><g id="XMLID_15521_"><g id="XMLID_15522_"><path d="M173.404,50.675v-2.651c-5.518,0-10.186,3.65-11.706,8.675       c-2.393-7.81,3.473-15.79,11.706-15.79v-2.651l9.015,6.206L173.404,50.675z" fill="#464E58" id="XMLID_9660_"/></g></g></g><g id="XMLID_761_"><g id="XMLID_762_"><g id="XMLID_763_"><g id="XMLID_764_"><path d="M239.055,105.212v74.858h-42.733c0,4.551-3.686,8.228-8.228,8.228        s-8.228-3.677-8.228-8.228v-74.858H239.055z" fill="#FFFFFF" id="XMLID_765_"/></g></g><g id="XMLID_766_"><path d="M253.024,180.07c0,4.551-3.686,8.228-8.228,8.228h-56.702       c4.542,0,8.228-3.677,8.228-8.228H253.024z" fill="#464E58" id="XMLID_767_"/></g></g><g id="XMLID_768_"><path d="M212.133,112.581c0.363,1.918-1.287,3.567-3.204,3.204      c-1.065-0.202-1.937-1.073-2.139-2.138c-0.364-1.918,1.287-3.569,3.205-3.205C211.06,110.644,211.931,111.515,212.133,112.581z" fill="#464E58" id="XMLID_9659_"/><circle cx="209.461" cy="113.113" fill="#25313B" r="1.624"/></g><g id="XMLID_769_"><g id="XMLID_770_"><rect fill="#DAD9D8" height="1.591" id="XMLID_9657_" width="6.332" x="184.222" y="124.798"/><rect fill="#DAD9D8" height="1.593" id="XMLID_771_" width="11.246" x="191.575" y="124.794"/></g><g id="XMLID_772_"><rect fill="#DAD9D8" height="1.591" id="XMLID_9656_" width="6.332" x="184.222" y="132.696"/><rect fill="#DAD9D8" height="1.591" id="XMLID_9655_" width="3.675" x="191.579" y="132.696"/><rect fill="#DAD9D8" height="1.591" id="XMLID_9654_" width="7.662" x="196.281" y="132.696"/><rect fill="#DAD9D8" height="1.591" id="XMLID_9653_" width="7.658" x="204.969" y="132.696"/><rect fill="#DAD9D8" height="1.591" id="XMLID_9652_" width="7.964" x="213.653" y="132.696"/></g><g id="XMLID_773_"><g id="XMLID_774_"><rect fill="#DAD9D8" height="1.593" id="XMLID_775_" width="13.178" x="184.221" y="128.747"/></g><g id="XMLID_776_"><rect fill="#DAD9D8" height="1.593" id="XMLID_777_" width="9.414" x="198.422" y="128.747"/></g><rect fill="#DAD9D8" height="1.591" id="XMLID_778_" width="7.069" x="208.858" y="128.746"/></g><g id="XMLID_779_"><rect fill="#DAD9D8" height="1.591" id="XMLID_9651_" width="4.236" x="184.222" y="136.645"/><rect fill="#DAD9D8" height="1.591" id="XMLID_9650_" width="8.428" x="189.483" y="136.645"/><rect fill="#DAD9D8" height="1.591" id="XMLID_780_" width="4.375" x="198.937" y="136.645"/></g><g id="XMLID_781_"><rect fill="#DAD9D8" height="1.591" id="XMLID_9649_" width="6.332" x="184.222" y="144.543"/><rect fill="#DAD9D8" height="1.591" id="XMLID_9644_" width="6.332" x="191.579" y="144.543"/><rect fill="#DAD9D8" height="1.591" id="XMLID_9643_" width="5.005" x="198.937" y="144.543"/><rect fill="#DAD9D8" height="1.591" id="XMLID_782_" width="6.535" x="204.969" y="144.543"/></g><g id="XMLID_783_"><g id="XMLID_784_"><rect fill="#DAD9D8" height="1.593" id="XMLID_785_" width="10.524" x="184.221" y="140.594"/></g><g id="XMLID_786_"><rect fill="#DAD9D8" height="1.593" id="XMLID_787_" width="12.069" x="195.768" y="140.594"/></g><rect fill="#DAD9D8" height="1.591" id="XMLID_9642_" width="8.823" x="208.858" y="140.592"/></g><g id="XMLID_788_"><rect fill="#DAD9D8" height="1.591" id="XMLID_9641_" width="6.332" x="184.222" y="148.492"/></g><g id="XMLID_789_"><rect fill="#DAD9D8" height="1.591" id="XMLID_9639_" width="6.332" x="184.222" y="156.39"/><rect fill="#DAD9D8" height="1.591" id="XMLID_9638_" width="6.332" x="191.579" y="156.39"/><rect fill="#DAD9D8" height="1.591" id="XMLID_9637_" width="6.845" x="198.937" y="156.39"/><g id="XMLID_790_"><rect fill="#DAD9D8" height="1.593" id="XMLID_791_" width="12.78" x="206.812" y="156.389"/></g><g id="XMLID_792_"><rect fill="#DAD9D8" height="1.593" id="XMLID_793_" width="11.263" x="220.616" y="156.389"/></g></g><g id="XMLID_794_"><g id="XMLID_795_"><rect fill="#DAD9D8" height="1.593" id="XMLID_796_" width="10.524" x="184.221" y="152.44"/></g><g id="XMLID_797_"><rect fill="#DAD9D8" height="1.592" id="XMLID_798_" width="7.708" x="195.768" y="152.44"/></g></g><g id="XMLID_799_"><rect fill="#DAD9D8" height="1.591" id="XMLID_9636_" width="8.172" x="184.222" y="160.339"/><rect fill="#DAD9D8" height="1.591" id="XMLID_9635_" width="8.426" x="193.42" y="160.339"/><rect fill="#DAD9D8" height="1.591" id="XMLID_9634_" width="9.754" x="202.873" y="160.339"/></g><g id="XMLID_800_"><g id="XMLID_801_"><rect fill="#DAD9D8" height="1.593" id="XMLID_802_" width="12.389" x="184.221" y="164.287"/></g><g id="XMLID_803_"><rect fill="#DAD9D8" height="1.593" id="XMLID_804_" width="6.662" x="197.633" y="164.287"/></g></g><g id="XMLID_805_"><rect fill="#DAD9D8" height="1.591" id="XMLID_9633_" width="6.332" x="184.222" y="172.185"/><rect fill="#DAD9D8" height="1.591" id="XMLID_9632_" width="6.332" x="191.579" y="172.185"/><g id="XMLID_806_"><rect fill="#DAD9D8" height="1.592" id="XMLID_807_" width="13.694" x="198.938" y="172.186"/></g><rect fill="#DAD9D8" height="1.591" id="XMLID_9631_" width="7.964" x="213.653" y="172.185"/></g><g id="XMLID_808_"><g id="XMLID_809_"><rect fill="#DAD9D8" height="1.592" id="XMLID_810_" width="8.688" x="184.221" y="168.236"/></g><g id="XMLID_811_"><rect fill="#DAD9D8" height="1.592" id="XMLID_812_" width="6.677" x="193.931" y="168.236"/><rect fill="#DAD9D8" height="1.592" id="XMLID_813_" width="5.6" x="202.237" y="168.236"/></g><rect fill="#DAD9D8" height="1.591" id="XMLID_814_" width="6.824" x="208.858" y="168.235"/></g></g></g><g id="XMLID_815_"><circle cx="139.775" cy="106.206" fill="#F37C5A" r="12.497"/><g id="XMLID_816_"><g id="XMLID_817_"><g id="XMLID_818_"><g id="XMLID_819_"><path d="M131.09,106.663v-1.503l5.618-2.6v1.36l-4.199,1.897v0.131l4.199,1.944v1.36         L131.09,106.663z" fill="#FFFFFF" id="XMLID_820_"/></g></g><g id="XMLID_821_"><g id="XMLID_822_"><polygon fill="#FFFFFF" id="XMLID_7899_" points="139.354,111.256 141.542,101.156 140.35,101.156 138.162,111.256                 "/></g></g><g id="XMLID_823_"><path d="M148.459,105.16v1.503l-5.618,2.589v-1.36l4.199-1.944v-0.131l-4.199-1.897v-1.36        L148.459,105.16z" fill="#FFFFFF" id="XMLID_824_"/></g></g></g></g><g id="XMLID_825_"><g id="XMLID_826_"><g id="XMLID_827_"><g id="XMLID_828_"><path d="M257.361,131.742v-13.711c0-1.146-0.929-2.075-2.075-2.075h-26.343        c-1.146,0-2.074,0.929-2.074,2.075v13.711c0,1.146,0.929,2.075,2.074,2.075h26.343        C256.432,133.817,257.361,132.888,257.361,131.742z" fill="#7CCEDC" id="XMLID_829_"/></g></g></g><g id="XMLID_830_"><path d="M234.207,128.764c-1.047,0-1.948-0.356-2.703-1.068      c-0.755-0.712-1.133-1.644-1.133-2.795s0.394-2.087,1.182-2.809c0.787-0.722,1.747-1.082,2.879-1.082      c1.132,0,2.09,0.392,2.873,1.175l-0.934,1.146c-0.651-0.566-1.307-0.849-1.967-0.849c-0.66,0-1.234,0.219-1.719,0.658      c-0.486,0.439-0.729,1.005-0.729,1.698c0,0.693,0.241,1.281,0.721,1.762c0.481,0.481,1.073,0.722,1.776,0.722      c0.702,0,1.365-0.321,1.988-0.962l0.934,1.019C236.462,128.302,235.405,128.764,234.207,128.764z" fill="#FFFFFF" id="XMLID_831_"/><path d="M241.549,128.226v-2.689h-2.703v-1.33h2.703v-2.66h1.274v2.66h2.703v1.33h-2.703v2.689      H241.549z" fill="#FFFFFF" id="XMLID_833_"/><path d="M249.881,128.226v-2.689h-2.703v-1.33h2.703v-2.66h1.274v2.66h2.703v1.33h-2.703v2.689      H249.881z" fill="#FFFFFF" id="XMLID_835_"/></g></g><g id="XMLID_837_"><g id="XMLID_838_"><path d="M214.48,217.397c-1.533-11.465-9.846-17.974-20.539-17.974s-19.006,6.508-20.539,17.974      H214.48z" fill="#FFFFFF" id="XMLID_839_"/></g><path d="M209.035,205.431c-7.647,7.067-22.215,10.716-35.078,9.153     c-0.227,0.906-0.425,1.835-0.556,2.814h41.078C213.816,212.437,211.88,208.41,209.035,205.431z" fill="#F2F2F2" id="XMLID_840_"/></g></g></g></svg>