<?xml version="1.0" ?><svg id="Layer_1" style="enable-background:new 0 0 128 128;" version="1.1" viewBox="0 0 128 128" xml:space="preserve" xmlns="http://www.w3.org/2000/svg" xmlns:xlink="http://www.w3.org/1999/xlink"><style type="text/css">
	.st0{fill:#F37C5A;}
	.st1{fill:#FDDA7F;}
	.st2{fill:#25313B;}
	.st3{fill:#F7BB52;}
	.st4{fill:#FFFFFF;}
	.st5{fill:#7CCEDC;}
	.st6{fill:#464E58;}
	.st7{fill:#DAD9D8;}
	.st8{fill:#F2F2F2;}
	.st9{fill:#DA664B;}
	.st10{fill:#50C6CC;}
	.st11{fill:#232E35;}
	.st12{fill:none;}
	.st13{fill:#202B33;}
	.st14{fill:#3D454C;}
	.st15{fill:none;stroke:#25313B;stroke-width:0.5;stroke-miterlimit:10;}
	.st16{fill:#50C6CC;stroke:#50C6CC;stroke-width:0.1;stroke-miterlimit:10;}
	.st17{fill:#7CCEDC;stroke:#50C6CC;stroke-width:0.1;stroke-miterlimit:10;}
	.st18{fill:#D1D0CF;}
	.st19{fill:#55BFBF;}
	.st20{fill:#424951;}
	.st21{fill:#D3624C;}
	.st22{fill:#222D35;}
	.st23{fill:#7AD1DE;}
	.st24{fill:none;stroke:#464E58;stroke-width:3;stroke-miterlimit:10;}
	.st25{fill:none;stroke:#464E58;stroke-width:3;stroke-miterlimit:10;stroke-dasharray:3.9532,3.9532;}
	.st26{fill:none;stroke:#464E58;stroke-width:3;stroke-miterlimit:10;stroke-dasharray:3.8648,3.8648;}
	.st27{fill:#FFD773;}
	.st28{fill:#F9BC53;}
	.st29{fill:#F57C5A;}
	.st30{fill:#FEDB80;}
	.st31{fill:#DBDAD9;}
	.st32{fill:#F3F3F3;}
	.st33{fill:#DB664B;}
	.st34{fill:#C45C4E;}
	.st35{fill:none;stroke:#FFFFFF;stroke-linecap:round;stroke-linejoin:round;stroke-miterlimit:10;}
	.st36{fill:#1F282D;}
	.st37{fill:#C9C9C9;}
	.st38{fill:#CC5E50;}
	.st39{fill:#222C33;}
	.st40{fill:#F2775A;}
	.st41{fill:none;stroke:#231F20;stroke-width:0.1;stroke-miterlimit:10;}
	.st42{fill:#50BABA;}
	.st43{fill:#CCCCCC;}
	.st44{fill:#7CCEDC;stroke:#231F20;stroke-width:0.7;stroke-linecap:round;stroke-linejoin:round;stroke-miterlimit:10;}
</style><g><path class="st1" d="M127.5,64.5c0,35.1-28.4,63.5-63.5,63.5c-29.6,0-54.5-20.3-61.5-47.8c-1.3-5-2-10.3-2-15.7   C0.5,29.5,28.9,1,64,1c31.4,0,57.4,22.7,62.6,52.6C127.2,57.2,127.5,60.8,127.5,64.5z"/><path class="st6" d="M125.5,115.7c-0.3,1.1-2,1.6-3.5,1.9c-1,0.2-2.1,0.3-3.1,0.3H9.2c-1.1,0-2.1-0.1-3.1-0.3   c-1.5-0.3-3.2-0.9-3.5-1.9H125.5z"/><path class="st6" d="M112.5,32.2H16.4c-2.2,0-3.9,1.8-3.9,3.9v64.7c0,1.2,1,2.3,2.3,2.3h99.4c1.2,0,2.3-1,2.3-2.3V36.2   C116.4,34,114.6,32.2,112.5,32.2z"/><path class="st2" d="M14.7,102.4c-0.8,0-1.5-0.7-1.5-1.5V36.2c0-1.8,1.4-3.2,3.2-3.2h96.1c1.8,0,3.2,1.4,3.2,3.2v64.7   c0,0.8-0.7,1.5-1.5,1.5H14.7z"/><rect class="st4" height="59.2" width="92.2" x="18.3" y="38.1"/><rect class="st0" height="4.3" width="92.2" x="18.3" y="38.1"/><path class="st7" d="M125.5,111.9v3.6c0,0.2-0.1,0.5-0.4,0.6c-0.4,0.2-1.3,0.5-3.4,0.4H6.3c-2,0-3-0.2-3.4-0.4   c-0.2-0.1-0.4-0.3-0.4-0.6v-3.6H125.5z"/><path class="st8" d="M116.4,102.4c-0.4-0.5-1-0.7-1.7-0.7H12.8c-0.7,0-1.3,0.3-1.7,0.8l-8.6,9.5v0c0,0,0,0.7,2.8,0.7h117.4   c2.8,0,2.8-0.6,2.8-0.7v0L116.4,102.4z"/><path class="st4" d="M54.6,112.6v0.6c0,0.8,0.7,1.5,1.5,1.5h15.8c0.8,0,1.5-0.7,1.5-1.5v-0.6H54.6z"/><path class="st7" d="M83.6,111.4l-0.7-2.7c-0.1-0.3-0.3-0.5-0.6-0.5H45.6c-0.3,0-0.6,0.2-0.6,0.5l-0.7,2.7   c-0.1,0.4,0.2,0.8,0.6,0.8h38C83.4,112.2,83.7,111.8,83.6,111.4z"/><path class="st2" d="M117.9,114.6h-3.7c-0.1,0-0.2,0.1-0.2,0.2c0,0.1,0.1,0.2,0.2,0.2h3.7c0.1,0,0.2-0.1,0.2-0.2   C118.1,114.7,118,114.6,117.9,114.6z"/><circle class="st4" cx="64.4" cy="35.4" r="0.5"/><polygon class="st4" points="114.9,107.5 13.6,107.5 13.8,107.2 14.4,106.4 14.6,106.2 15,105.6 15.2,105.5 15.6,104.8 15.8,104.7    16.2,104.1 16.4,103.9 16.8,103.3 17,103.1 17.4,102.5 17.7,102.2 110.8,102.2 111,102.5 111.5,103.1 111.6,103.3 112.1,103.9    112.2,104.1 112.7,104.7 112.8,104.8 113.3,105.5 113.4,105.6 113.9,106.2 114.1,106.4 114.7,107.2  "/><polygon class="st8" points="28.8,106.4 28.1,107.2 23,107.2 23.6,106.4  "/><polygon class="st8" points="35.5,106.4 34.8,107.2 29.7,107.2 30.3,106.4  "/><polygon class="st8" points="43.9,106.4 43.2,107.2 36.3,107.2 36.9,106.4  "/><polygon class="st8" points="24.4,105.6 24,106.2 17.3,106.2 17.7,105.6  "/><polygon class="st8" points="31.1,105.6 30.6,106.2 25.4,106.2 25.9,105.6  "/><polygon class="st8" points="37.5,105.6 37,106.2 31.8,106.2 32.3,105.6  "/><polygon class="st8" points="44.2,105.6 43.7,106.2 38.5,106.2 38.9,105.6  "/><polygon class="st8" points="50.6,105.6 50.1,106.2 44.9,106.2 45.4,105.6  "/><polygon class="st8" points="57,105.6 56.5,106.2 51.3,106.2 51.8,105.6  "/><polygon class="st8" points="28.1,104.8 27.6,105.5 17.9,105.5 18.3,104.8  "/><polygon class="st8" points="34.7,104.8 34.2,105.5 29.1,105.5 29.6,104.8  "/><polygon class="st8" points="41.2,104.8 40.7,105.5 35.5,105.5 36,104.8  "/><polygon class="st8" points="47.6,104.8 47.1,105.5 42,105.5 42.5,104.8  "/><polygon class="st8" points="54,104.8 53.5,105.5 48.3,105.5 48.8,104.8  "/><polygon class="st8" points="60.3,104.8 59.8,105.5 54.7,105.5 55.2,104.8  "/><polygon class="st8" points="27.1,104.1 26.6,104.7 18.5,104.7 18.9,104.1  "/><polygon class="st8" points="33.4,104.1 32.9,104.7 28,104.7 28.5,104.1  "/><polygon class="st8" points="39.8,104.1 39.4,104.7 34.5,104.7 34.9,104.1  "/><polygon class="st8" points="46.3,104.1 45.8,104.7 40.9,104.7 41.4,104.1  "/><polygon class="st8" points="52,104.1 51.5,104.7 46.6,104.7 47.1,104.1  "/><polygon class="st8" points="57.7,104.1 57.3,104.7 52.3,104.7 52.8,104.1  "/><polygon class="st8" points="24.5,103.3 24,103.9 19.1,103.9 19.5,103.3  "/><polygon class="st8" points="30.8,103.3 30.3,103.9 25.4,103.9 25.9,103.3  "/><polygon class="st8" points="37.2,103.3 36.7,103.9 31.8,103.9 32.3,103.3  "/><polygon class="st8" points="43.5,103.3 43,103.9 38.1,103.9 38.6,103.3  "/><polygon class="st8" points="49.4,103.3 49,103.9 44,103.9 44.5,103.3  "/><polygon class="st8" points="55.4,103.3 54.9,103.9 50,103.9 50.4,103.3  "/><polygon class="st8" points="22.3,106.4 21.6,107.2 16.5,107.2 17.1,106.4  "/><polygon class="st8" points="24.5,102.5 24,103.1 19.7,103.1 20.1,102.5  "/><polygon class="st8" points="31.7,102.5 31.2,103.1 26,103.1 26.5,102.5  "/><polygon class="st8" points="38.1,102.5 37.6,103.1 32.5,103.1 33,102.5  "/><polygon class="st8" points="44.6,102.5 44.1,103.1 38.9,103.1 39.4,102.5  "/><polygon class="st8" points="51,102.5 50.6,103.1 45.4,103.1 45.9,102.5  "/><polygon class="st8" points="106.3,106.4 106.9,107.2 112.1,107.2 111.5,106.4  "/><polygon class="st8" points="99.8,106.4 100.4,107.2 105.6,107.2 104.9,106.4  "/><polygon class="st8" points="93.1,106.4 93.7,107.2 98.9,107.2 98.2,106.4  "/><polygon class="st8" points="84.7,106.4 85.3,107.2 92.3,107.2 91.6,106.4  "/><polygon class="st8" points="104.1,105.6 104.6,106.2 111.3,106.2 110.8,105.6  "/><polygon class="st8" points="97.5,105.6 98,106.2 103.2,106.2 102.7,105.6  "/><polygon class="st8" points="91,105.6 91.5,106.2 96.7,106.2 96.3,105.6  "/><polygon class="st8" points="84.4,105.6 84.9,106.2 90.1,106.2 89.6,105.6  "/><polygon class="st8" points="77.8,105.6 78.3,106.2 83.6,106.2 83.1,105.6  "/><polygon class="st8" points="71.5,105.6 72,106.2 77.3,106.2 76.8,105.6  "/><polygon class="st8" points="65.2,105.6 65.7,106.2 71,106.2 70.5,105.6  "/><polygon class="st8" points="58.1,105.6 57.6,106.2 64.6,106.2 64.2,105.6  "/><polygon class="st8" points="61.7,104.8 61.3,105.5 68.3,105.5 67.8,104.8  "/><polygon class="st8" points="58.1,104.1 57.6,104.7 64.6,104.7 64.2,104.1  "/><polygon class="st8" points="56.4,103.3 56,103.9 60.5,103.9 60.1,103.3  "/><polygon class="st8" points="100.4,104.8 100.9,105.5 110.7,105.5 110.2,104.8  "/><polygon class="st8" points="93.9,104.8 94.3,105.5 99.5,105.5 99,104.8  "/><polygon class="st8" points="87.4,104.8 87.9,105.5 93,105.5 92.5,104.8  "/><polygon class="st8" points="80.9,104.8 81.4,105.5 86.6,105.5 86.1,104.8  "/><polygon class="st8" points="74.7,104.8 75.2,105.5 80.3,105.5 79.8,104.8  "/><polygon class="st8" points="68.7,104.8 69.2,105.5 74.4,105.5 73.9,104.8  "/><polygon class="st8" points="101.5,104.1 102,104.7 110.1,104.7 109.6,104.1  "/><polygon class="st8" points="95.2,104.1 95.7,104.7 100.6,104.7 100.1,104.1  "/><polygon class="st8" points="88.7,104.1 89.2,104.7 94.1,104.7 93.6,104.1  "/><polygon class="st8" points="82.3,104.1 82.7,104.7 87.6,104.7 87.2,104.1  "/><polygon class="st8" points="76.3,104.1 76.8,104.7 81.7,104.7 81.2,104.1  "/><polygon class="st8" points="70.3,104.1 70.8,104.7 75.7,104.7 75.2,104.1  "/><polygon class="st8" points="64.9,104.1 65.4,104.7 70.3,104.7 69.8,104.1  "/><polygon class="st8" points="104.1,103.3 104.6,103.9 109.5,103.9 109,103.3  "/><polygon class="st8" points="97.7,103.3 98.2,103.9 103.1,103.9 102.7,103.3  "/><polygon class="st8" points="91.4,103.3 91.9,103.9 96.8,103.9 96.3,103.3  "/><polygon class="st8" points="85,103.3 85.5,103.9 90.4,103.9 89.9,103.3  "/><polygon class="st8" points="79,103.3 79.4,103.9 84.4,103.9 83.9,103.3  "/><polygon class="st8" points="72.9,103.3 73.4,103.9 78.3,103.9 77.8,103.3  "/><polygon class="st8" points="66.8,103.3 67.3,103.9 72.2,103.9 71.7,103.3  "/><polygon class="st8" points="61.1,103.3 61.6,103.9 66.5,103.9 66,103.3  "/><polygon class="st8" points="104,102.5 104.5,103.1 108.9,103.1 108.4,102.5  "/><polygon class="st8" points="96.9,102.5 97.4,103.1 102.5,103.1 102.1,102.5  "/><polygon class="st8" points="90.4,102.5 90.9,103.1 96.1,103.1 95.6,102.5  "/><polygon class="st8" points="84,102.5 84.5,103.1 89.6,103.1 89.1,102.5  "/><polygon class="st8" points="77.5,102.5 78,103.1 83.2,103.1 82.7,102.5  "/><polygon class="st8" points="71.6,102.5 72.1,103.1 77.2,103.1 76.7,102.5  "/><polygon class="st8" points="65.6,102.5 66.1,103.1 71.3,103.1 70.8,102.5  "/><polygon class="st8" points="59.7,102.5 60.2,103.1 65.4,103.1 64.9,102.5  "/><polygon class="st8" points="52.5,102.5 52,103.2 59.4,103.1 58.9,102.5  "/><polygon class="st8" points="77.1,107.4 44.6,107.4 45.2,106.5 76.4,106.5  "/><polygon class="st8" points="84.7,107.4 78,107.4 77.4,106.5 84.1,106.5  "/><circle class="st4" cx="107.4" cy="40.2" r="1.2"/><circle class="st5" cx="104" cy="40.2" r="1.2"/><circle class="st4" cx="100.6" cy="40.2" r="1.2"/><rect class="st10" height="72.6" width="55.2" x="6.8" y="11.1"/><rect class="st2" height="3.8" width="55.2" x="6.8" y="11.1"/><rect class="st4" height="2.2" width="40.6" x="19.1" y="11.9"/><circle class="st4" cx="9.3" cy="13" r="1.1"/><circle class="st4" cx="12.1" cy="13" r="1.1"/><circle class="st4" cx="15" cy="13" r="1.1"/><circle class="st8" cx="59.4" cy="78.4" r="12.8"/><path class="st2" d="M56.5,72.2h1.2l4.5,12.3H61L56.5,72.2z"/><path class="st2" d="M55.1,74.2c-0.5,0-0.7,0.2-0.7,0.7v2.5c0,0.5-0.3,0.9-0.8,0.9c0.5,0.1,0.8,0.4,0.8,0.9V82   c0,0.2,0.1,0.3,0.2,0.4c0.1,0.1,0.3,0.1,0.6,0.1v1.1h-0.4c-1,0-1.6-0.5-1.6-1.5v-2.5c0-0.3,0-0.4-0.1-0.5c-0.1-0.1-0.2-0.2-0.4-0.2   h-0.3v-1.1h0.3c0.2,0,0.3-0.1,0.4-0.2c0.1-0.1,0.1-0.3,0.1-0.6v-2.4c0-1,0.5-1.5,1.6-1.5h0.4L55.1,74.2   C55.2,74.2,55.1,74.2,55.1,74.2z"/><path class="st2" d="M64,83.6h-0.4v-1.1c0.3,0,0.5,0,0.6-0.1c0.1-0.1,0.2-0.2,0.2-0.4v-2.7c0-0.5,0.3-0.9,0.8-0.9   c-0.5-0.1-0.8-0.4-0.8-0.9v-2.5c0-0.2-0.1-0.4-0.2-0.5c-0.1-0.1-0.3-0.2-0.4-0.2h0l-0.2,0v-1.1H64c1,0,1.6,0.5,1.6,1.5v2.4   c0,0.3,0,0.4,0.1,0.6c0.1,0.1,0.2,0.2,0.4,0.2h0.3v1.1h-0.3c-0.2,0-0.3,0.1-0.4,0.2c-0.1,0.1-0.1,0.3-0.1,0.5v2.5   C65.6,83.1,65.1,83.6,64,83.6z"/><path class="st4" d="M33.4,27.5H10.9c-0.3,0-0.5-0.2-0.5-0.5s0.2-0.5,0.5-0.5h22.5c0.3,0,0.5,0.2,0.5,0.5S33.6,27.5,33.4,27.5z"/><path class="st4" d="M45.8,27.5H37c-0.3,0-0.5-0.2-0.5-0.5s0.2-0.5,0.5-0.5h8.8c0.3,0,0.5,0.2,0.5,0.5S46.1,27.5,45.8,27.5z"/><path class="st4" d="M29.3,31.6H10.9c-0.3,0-0.5-0.2-0.5-0.5c0-0.3,0.2-0.5,0.5-0.5h18.4c0.3,0,0.5,0.2,0.5,0.5   C29.7,31.3,29.5,31.6,29.3,31.6z"/><path class="st4" d="M58,31.6H42.2c-0.3,0-0.5-0.2-0.5-0.5c0-0.3,0.2-0.5,0.5-0.5H58c0.3,0,0.5,0.2,0.5,0.5   C58.5,31.3,58.3,31.6,58,31.6z"/><path class="st4" d="M39.4,31.6h-7.2c-0.3,0-0.5-0.2-0.5-0.5c0-0.3,0.2-0.5,0.5-0.5h7.2c0.3,0,0.5,0.2,0.5,0.5   C39.9,31.3,39.7,31.6,39.4,31.6z"/><path class="st4" d="M18,35.6h-7c-0.3,0-0.5-0.2-0.5-0.5s0.2-0.5,0.5-0.5h7c0.3,0,0.5,0.2,0.5,0.5S18.2,35.6,18,35.6z"/><path class="st4" d="M58,35.6H45c-0.3,0-0.5-0.2-0.5-0.5s0.2-0.5,0.5-0.5h13c0.3,0,0.5,0.2,0.5,0.5S58.3,35.6,58,35.6z"/><path class="st4" d="M32.6,35.6H20.4c-0.3,0-0.5-0.2-0.5-0.5s0.2-0.5,0.5-0.5h12.3c0.3,0,0.5,0.2,0.5,0.5S32.9,35.6,32.6,35.6z"/><path class="st4" d="M43.1,35.6h-8.4c-0.3,0-0.5-0.2-0.5-0.5s0.2-0.5,0.5-0.5h8.4c0.3,0,0.5,0.2,0.5,0.5S43.4,35.6,43.1,35.6z"/><path class="st4" d="M33.4,41.2H10.9c-0.3,0-0.5-0.2-0.5-0.5s0.2-0.5,0.5-0.5h22.5c0.3,0,0.5,0.2,0.5,0.5S33.6,41.2,33.4,41.2z"/><path class="st4" d="M45.8,41.2H37c-0.3,0-0.5-0.2-0.5-0.5s0.2-0.5,0.5-0.5h8.8c0.3,0,0.5,0.2,0.5,0.5S46.1,41.2,45.8,41.2z"/><path class="st4" d="M29.3,45.2H10.9c-0.3,0-0.5-0.2-0.5-0.5s0.2-0.5,0.5-0.5h18.4c0.3,0,0.5,0.2,0.5,0.5S29.5,45.2,29.3,45.2z"/><path class="st4" d="M58,45.2H42.2c-0.3,0-0.5-0.2-0.5-0.5s0.2-0.5,0.5-0.5H58c0.3,0,0.5,0.2,0.5,0.5S58.3,45.2,58,45.2z"/><path class="st4" d="M39.4,45.2h-7.2c-0.3,0-0.5-0.2-0.5-0.5s0.2-0.5,0.5-0.5h7.2c0.3,0,0.5,0.2,0.5,0.5S39.7,45.2,39.4,45.2z"/><path class="st4" d="M18,49.3h-7c-0.3,0-0.5-0.2-0.5-0.5s0.2-0.5,0.5-0.5h7c0.3,0,0.5,0.2,0.5,0.5S18.2,49.3,18,49.3z"/><path class="st4" d="M58,49.3H45c-0.3,0-0.5-0.2-0.5-0.5s0.2-0.5,0.5-0.5h13c0.3,0,0.5,0.2,0.5,0.5S58.3,49.3,58,49.3z"/><path class="st4" d="M32.6,49.3H20.4c-0.3,0-0.5-0.2-0.5-0.5s0.2-0.5,0.5-0.5h12.3c0.3,0,0.5,0.2,0.5,0.5S32.9,49.3,32.6,49.3z"/><path class="st4" d="M43.1,49.3h-8.4c-0.3,0-0.5-0.2-0.5-0.5s0.2-0.5,0.5-0.5h8.4c0.3,0,0.5,0.2,0.5,0.5S43.4,49.3,43.1,49.3z"/><path class="st4" d="M33.4,54.8H10.9c-0.3,0-0.5-0.2-0.5-0.5s0.2-0.5,0.5-0.5h22.5c0.3,0,0.5,0.2,0.5,0.5S33.6,54.8,33.4,54.8z"/><path class="st4" d="M45.8,54.8H37c-0.3,0-0.5-0.2-0.5-0.5s0.2-0.5,0.5-0.5h8.8c0.3,0,0.5,0.2,0.5,0.5S46.1,54.8,45.8,54.8z"/><path class="st4" d="M29.3,58.9H10.9c-0.3,0-0.5-0.2-0.5-0.5s0.2-0.5,0.5-0.5h18.4c0.3,0,0.5,0.2,0.5,0.5S29.5,58.9,29.3,58.9z"/><path class="st4" d="M58,58.9H42.2c-0.3,0-0.5-0.2-0.5-0.5s0.2-0.5,0.5-0.5H58c0.3,0,0.5,0.2,0.5,0.5S58.3,58.9,58,58.9z"/><path class="st4" d="M39.4,58.9h-7.2c-0.3,0-0.5-0.2-0.5-0.5s0.2-0.5,0.5-0.5h7.2c0.3,0,0.5,0.2,0.5,0.5S39.7,58.9,39.4,58.9z"/><path class="st4" d="M18,63h-7c-0.3,0-0.5-0.2-0.5-0.5s0.2-0.5,0.5-0.5h7c0.3,0,0.5,0.2,0.5,0.5S18.2,63,18,63z"/><path class="st4" d="M58,63H45c-0.3,0-0.5-0.2-0.5-0.5S44.7,62,45,62h13c0.3,0,0.5,0.2,0.5,0.5S58.3,63,58,63z"/><path class="st4" d="M32.6,63H20.4c-0.3,0-0.5-0.2-0.5-0.5s0.2-0.5,0.5-0.5h12.3c0.3,0,0.5,0.2,0.5,0.5S32.9,63,32.6,63z"/><path class="st4" d="M43.1,63h-8.4c-0.3,0-0.5-0.2-0.5-0.5s0.2-0.5,0.5-0.5h8.4c0.3,0,0.5,0.2,0.5,0.5S43.4,63,43.1,63z"/><path class="st6" d="M100.8,17c-0.1,0.8-0.4,1.6-0.6,2.3l2.5,2.1l-1.3,2.2l-3.1-1.1c-0.5,0.6-1.1,1.2-1.7,1.7l1.1,3l-2.2,1.3   l-2.1-2.5c-0.7,0.3-1.5,0.5-2.3,0.6l-0.6,3.1h-2.6l-0.6-3.1c-0.8-0.1-1.5-0.3-2.2-0.6l-2.2,2.5l-2.2-1.3l1.1-3.1   c-0.6-0.5-1.2-1.1-1.8-1.7l-3.1,1.1l-1.3-2.2l2.5-2.1c-0.3-0.8-0.5-1.6-0.7-2.4l-3.2-0.6v-2.6l3.2-0.6c0.1-0.8,0.3-1.7,0.6-2.4   l-2.5-2.1l1.3-2.2l3,1.1c0.5-0.7,1.1-1.3,1.8-1.8l-1.1-3l2.2-1.3l2.1,2.4c0.8-0.3,1.6-0.5,2.4-0.7L87.8,0h2.6l0.6,3.2   c0.9,0.1,1.8,0.4,2.6,0.7l2-2.3l2.2,1.3l-1,3c0.6,0.5,1.2,1.1,1.7,1.8l3-1l1.3,2.2l-2.4,2.1c0.3,0.8,0.5,1.5,0.6,2.4l3.2,0.6v2.6   L100.8,17z"/><circle class="st4" cx="89.1" cy="14.9" r="7.6"/><path class="st10" d="M83,15.3v-0.9l3.5-1.6v0.9l-2.6,1.2v0.1l2.6,1.2v0.9L83,15.3z"/><path class="st10" d="M87.3,12.1h0.8l2.7,5.7H90L87.3,12.1z"/><path class="st10" d="M95.1,14.3v0.9l-3.5,1.6V16l2.6-1.2v-0.1l-2.6-1.2v-0.9L95.1,14.3z"/></g></svg>