<?xml version="1.0" ?><!DOCTYPE svg  PUBLIC '-//W3C//DTD SVG 1.1//EN'  'http://www.w3.org/Graphics/SVG/1.1/DTD/svg11.dtd'><svg enable-background="new 0 0 258 258" id="Layer_1" version="1.1" viewBox="0 0 258 258" xml:space="preserve" xmlns="http://www.w3.org/2000/svg" xmlns:xlink="http://www.w3.org/1999/xlink"><g id="XMLID_3_"><g id="XMLID_4_"><circle cx="129.909" cy="127.534" fill="#7CCEDC" r="128"/><g id="XMLID_7_"><g id="XMLID_8_"><path d="M205.996,201.932h-1v-26.044c0-2.578,2.097-4.674,4.674-4.674h22.102      c2.026,0,3.674-1.648,3.674-3.674s-1.648-3.674-3.674-3.674H205.49c-2.578,0-4.674-2.097-4.674-4.674      c0-2.578,2.097-4.674,4.674-4.674h3.191c2.026,0,3.674-1.648,3.674-3.674c0-2.026-1.648-3.674-3.674-3.674h-14.277v-1h14.277      c2.578,0,4.674,2.097,4.674,4.674c0,2.578-2.097,4.674-4.674,4.674h-3.191c-2.026,0-3.674,1.649-3.674,3.674      c0,2.026,1.648,3.674,3.674,3.674h26.283c2.578,0,4.674,2.097,4.674,4.674c0,2.578-2.097,4.674-4.674,4.674H209.67      c-2.026,0-3.674,1.648-3.674,3.674V201.932z" fill="#FFFFFF" id="XMLID_9_"/></g><g id="XMLID_10_"><g id="XMLID_11_"><path d="M214.39,206.613v10.504c0,5.008-4.064,9.061-9.061,9.061       c-5.008,0-9.061-4.053-9.061-9.061v-10.504c0-5.008,4.053-9.061,9.061-9.061C210.326,197.552,214.39,201.605,214.39,206.613z" fill="#F2F2F2" id="XMLID_12_"/></g></g><g id="XMLID_13_" opacity="0.5"><g id="XMLID_14_"><path d="M214.393,217.117c0,5.002-4.069,9.059-9.059,9.059c-4.117,0-7.587-2.74-8.7-6.486       c1.628,1.209,3.494,1.903,5.469,1.903c7.686,0,12.711-9.935,11.297-19.075C214.682,205.008,214.393,205.918,214.393,217.117z" fill="#DAD9D8" id="XMLID_15_"/></g></g><g id="XMLID_16_"><g id="XMLID_17_"><path d="M206.777,204.943v2.315c0,0.797-0.646,1.454-1.454,1.454       c-0.797,0-1.454-0.657-1.454-1.454v-2.315c0-0.797,0.657-1.454,1.454-1.454C206.131,203.489,206.777,204.146,206.777,204.943z" fill="#464E58" id="XMLID_18_"/></g></g><g id="XMLID_19_"><g id="XMLID_20_"><rect fill="#FDDA7F" height="2.778" id="XMLID_21_" width="2.111" x="191.246" y="145.279"/></g></g><g id="XMLID_22_"><path d="M196.732,148.881h-3.352c-0.296,0-0.537-0.24-0.537-0.537v-3.352      c0-0.296,0.24-0.537,0.537-0.537h3.352c0.296,0,0.537,0.24,0.537,0.537v3.352C197.269,148.64,197.029,148.881,196.732,148.881z" fill="#464E58" id="XMLID_23148_"/></g></g><g id="XMLID_23_"><g id="XMLID_24_"><g id="XMLID_25_"><path d="M191.892,132.173h-0.363v9.441h0.363c0.41,0,0.743-0.333,0.743-0.743v-7.955       C192.635,132.506,192.303,132.173,191.892,132.173z" fill="#DAD9D8" id="XMLID_26_"/></g></g><g id="XMLID_27_"><g id="XMLID_28_"><path d="M191.892,155.484h-0.363v7.996h0.363c0.41,0,0.743-0.333,0.743-0.743v-6.51       C192.635,155.817,192.303,155.484,191.892,155.484z" fill="#DAD9D8" id="XMLID_29_"/></g></g><g id="XMLID_30_"><g id="XMLID_31_"><g id="XMLID_32_"><path d="M191.974,129.375v73.359c0,2.3-1.865,4.164-4.164,4.164H70.056        c-2.3,0-4.164-1.865-4.164-4.164v-73.359c0-2.3,1.864-4.164,4.164-4.164h117.753        C190.109,125.211,191.974,127.075,191.974,129.375z" fill="#F2F2F2" id="XMLID_33_"/></g><g id="XMLID_34_"><g id="XMLID_35_"><path d="M191.974,50.056v70.991c0,2.3-1.865,4.164-4.164,4.164H70.056         c-2.3,0-4.164-1.865-4.164-4.164V50.056c0-2.3,1.864-4.164,4.164-4.164h117.753         C190.109,45.892,191.974,47.756,191.974,50.056z" fill="#464E58" id="XMLID_36_"/></g><g id="XMLID_37_"><g id="XMLID_38_"><rect fill="#F2F2F2" height="63.741" id="XMLID_39_" width="115.427" x="71.219" y="54.414"/></g></g><g id="XMLID_40_"><g id="XMLID_41_"><rect fill="#DAD9D8" height="56.453" id="XMLID_42_" width="1.016" x="84.056" y="58.248"/></g></g></g><g id="XMLID_43_"><g id="XMLID_44_"><rect fill="#DAD9D8" height="42.345" id="XMLID_45_" width="111.698" x="73.084" y="136.923"/></g></g></g><g id="XMLID_46_"><g id="XMLID_47_"><rect fill="#464E58" height="5.959" id="XMLID_48_" width="7.2" x="84.484" y="155.064"/></g><g id="XMLID_49_"><rect fill="#464E58" height="5.959" id="XMLID_50_" width="16.277" x="75.407" y="163.009"/></g><g id="XMLID_51_"><rect fill="#464E58" height="5.959" id="XMLID_52_" width="7.199" x="166.181" y="147.12"/></g><g id="XMLID_53_"><rect fill="#464E58" height="5.959" id="XMLID_54_" width="7.199" x="166.181" y="155.064"/></g><g id="XMLID_55_"><rect fill="#464E58" height="5.959" id="XMLID_56_" width="7.199" x="148.026" y="147.12"/></g><g id="XMLID_57_"><rect fill="#464E58" height="5.959" id="XMLID_58_" width="7.199" x="157.104" y="147.12"/></g><g id="XMLID_59_"><rect fill="#464E58" height="5.959" id="XMLID_60_" width="7.199" x="166.181" y="163.009"/></g><g id="XMLID_61_"><rect fill="#464E58" height="5.959" id="XMLID_62_" width="7.2" x="129.872" y="163.009"/></g><g id="XMLID_63_"><rect fill="#464E58" height="5.959" id="XMLID_64_" width="7.2" x="111.717" y="163.009"/></g><g id="XMLID_65_"><rect fill="#464E58" height="5.959" id="XMLID_66_" width="7.199" x="148.026" y="163.009"/></g><g id="XMLID_67_"><rect fill="#464E58" height="5.959" id="XMLID_68_" width="7.2" x="138.949" y="163.009"/></g><g id="XMLID_69_"><rect fill="#464E58" height="5.959" id="XMLID_70_" width="7.2" x="120.794" y="163.009"/></g><g id="XMLID_71_"><rect fill="#464E58" height="5.959" id="XMLID_72_" width="7.2" x="138.949" y="147.12"/></g><g id="XMLID_73_"><rect fill="#464E58" height="5.959" id="XMLID_74_" width="7.199" x="93.562" y="155.064"/></g><g id="XMLID_75_"><rect fill="#464E58" height="5.959" id="XMLID_76_" width="7.199" x="93.562" y="163.009"/></g><g id="XMLID_77_"><rect fill="#464E58" height="5.959" id="XMLID_78_" width="7.2" x="102.639" y="163.009"/></g><g id="XMLID_79_"><rect fill="#464E58" height="5.959" id="XMLID_80_" width="7.2" x="120.794" y="155.064"/></g><g id="XMLID_81_"><rect fill="#464E58" height="5.959" id="XMLID_82_" width="7.2" x="111.717" y="155.064"/></g><g id="XMLID_83_"><rect fill="#464E58" height="5.959" id="XMLID_84_" width="7.199" x="157.104" y="163.009"/></g><g id="XMLID_85_"><rect fill="#464E58" height="5.959" id="XMLID_86_" width="7.2" x="129.872" y="155.064"/></g><g id="XMLID_87_"><rect fill="#464E58" height="5.959" id="XMLID_88_" width="7.2" x="102.639" y="155.064"/></g><g id="XMLID_89_"><rect fill="#464E58" height="5.959" id="XMLID_90_" width="7.2" x="138.949" y="155.064"/></g><g id="XMLID_91_"><rect fill="#464E58" height="5.959" id="XMLID_92_" width="7.199" x="157.104" y="155.064"/></g><g id="XMLID_93_"><rect fill="#464E58" height="5.959" id="XMLID_94_" width="7.199" x="148.026" y="155.064"/></g><g id="XMLID_95_"><rect fill="#464E58" height="5.959" id="XMLID_96_" width="7.199" x="175.259" y="147.12"/></g><g id="XMLID_97_"><g id="XMLID_98_"><rect fill="#464E58" height="5.957" id="XMLID_99_" width="25.354" x="157.104" y="139.178"/></g></g><g id="XMLID_100_"><rect fill="#464E58" height="5.959" id="XMLID_101_" width="7.199" x="148.026" y="139.176"/></g><g id="XMLID_102_"><g id="XMLID_103_"><rect fill="#464E58" height="13.9" id="XMLID_104_" width="7.202" x="175.256" y="155.064"/></g></g><g id="XMLID_105_"><rect fill="#464E58" height="5.959" id="XMLID_106_" width="7.2" x="129.872" y="139.176"/></g><g id="XMLID_107_"><rect fill="#464E58" height="5.959" id="XMLID_108_" width="7.2" x="84.484" y="139.176"/></g><g id="XMLID_109_"><rect fill="#464E58" height="5.959" id="XMLID_110_" width="7.2" x="102.639" y="139.176"/></g><g id="XMLID_111_"><rect fill="#464E58" height="5.959" id="XMLID_112_" width="7.2" x="129.872" y="147.12"/></g><g id="XMLID_113_"><rect fill="#464E58" height="5.959" id="XMLID_114_" width="7.2" x="138.949" y="139.176"/></g><g id="XMLID_115_"><rect fill="#464E58" height="5.959" id="XMLID_116_" width="7.2" x="75.407" y="139.176"/></g><g id="XMLID_117_"><rect fill="#464E58" height="5.959" id="XMLID_118_" width="7.2" x="111.717" y="139.176"/></g><g id="XMLID_119_"><rect fill="#464E58" height="5.959" id="XMLID_120_" width="7.2" x="120.794" y="139.176"/></g><g id="XMLID_121_"><rect fill="#464E58" height="5.959" id="XMLID_122_" width="7.199" x="93.562" y="139.176"/></g><g id="XMLID_123_"><rect fill="#464E58" height="5.959" id="XMLID_124_" width="7.2" x="75.407" y="147.12"/></g><g id="XMLID_125_"><rect fill="#464E58" height="5.959" id="XMLID_126_" width="7.2" x="84.484" y="147.12"/></g><g id="XMLID_127_"><rect fill="#464E58" height="5.959" id="XMLID_128_" width="7.199" x="93.562" y="147.12"/></g><g id="XMLID_129_"><rect fill="#464E58" height="5.959" id="XMLID_130_" width="7.2" x="75.407" y="155.064"/></g><g id="XMLID_131_"><rect fill="#464E58" height="5.959" id="XMLID_132_" width="7.2" x="120.794" y="147.12"/></g><g id="XMLID_133_"><rect fill="#464E58" height="5.959" id="XMLID_134_" width="7.2" x="102.639" y="147.12"/></g><g id="XMLID_135_"><rect fill="#464E58" height="5.959" id="XMLID_136_" width="7.2" x="111.717" y="147.12"/></g><g id="XMLID_137_"><g id="XMLID_138_"><rect fill="#464E58" height="5.959" id="XMLID_139_" width="7.199" x="175.259" y="170.955"/></g><g id="XMLID_140_"><rect fill="#464E58" height="5.959" id="XMLID_141_" width="7.199" x="166.181" y="170.955"/></g><g id="XMLID_142_"><rect fill="#464E58" height="5.959" id="XMLID_143_" width="7.2" x="84.484" y="170.955"/></g><g id="XMLID_144_"><rect fill="#464E58" height="5.959" id="XMLID_145_" width="7.199" x="157.104" y="170.955"/></g><g id="XMLID_146_"><rect fill="#464E58" height="5.959" id="XMLID_147_" width="7.199" x="93.562" y="170.955"/></g><g id="XMLID_148_"><g id="XMLID_149_"><rect fill="#464E58" height="5.957" id="XMLID_150_" width="52.587" x="102.639" y="170.959"/></g></g></g></g><g id="XMLID_151_"><rect fill="#464E58" height="5.957" id="XMLID_152_" width="7.202" x="75.407" y="170.959"/></g></g><g id="XMLID_153_"><rect fill="#DAD9D8" height="4.646" id="XMLID_154_" width="68.77" x="94.548" y="125.211"/></g><g id="XMLID_155_"><path d="M142.133,200.854h-26.401c-0.529,0-0.958-0.429-0.958-0.958v-16.175      c0-0.529,0.429-0.958,0.958-0.958h26.401c0.529,0,0.958,0.429,0.958,0.958v16.175      C143.091,200.425,142.662,200.854,142.133,200.854z" fill="#DAD9D8" id="XMLID_23014_"/></g><g id="XMLID_156_"><g id="XMLID_157_"><rect fill="#DAD9D8" height="1.409" id="XMLID_23012_" width="5.087" x="108.913" y="59.308"/></g><g id="XMLID_158_"><rect fill="#DAD9D8" height="1.409" id="XMLID_23010_" width="6.695" x="115.064" y="59.308"/></g></g><g id="XMLID_159_"><rect fill="#DAD9D8" height="1.406" id="XMLID_160_" width="5.309" x="90.46" y="59.311"/></g><g id="XMLID_161_"><g id="XMLID_162_"><rect fill="#464E58" height="1.406" id="XMLID_163_" width="11.011" x="96.834" y="59.311"/></g></g><g id="XMLID_164_"><g id="XMLID_165_"><rect fill="#DAD9D8" height="1.409" id="XMLID_23002_" width="6.695" x="150.362" y="63.121"/></g><g id="XMLID_166_"><rect fill="#DAD9D8" height="1.409" id="XMLID_23000_" width="3.479" x="145.818" y="63.121"/></g><g id="XMLID_167_"><rect fill="#464E58" height="1.409" id="XMLID_22998_" width="5.087" x="139.667" y="63.121"/></g><g id="XMLID_168_"><rect fill="#DAD9D8" height="1.409" id="XMLID_22996_" width="4.023" x="134.58" y="63.121"/></g><g id="XMLID_169_"><rect fill="#DAD9D8" height="1.409" id="XMLID_22994_" width="7.578" x="125.938" y="63.121"/></g><g id="XMLID_170_"><rect fill="#464E58" height="1.409" id="XMLID_22992_" width="5.371" x="119.504" y="63.121"/></g><g id="XMLID_171_"><rect fill="#DAD9D8" height="1.409" id="XMLID_22990_" width="1.933" x="116.507" y="63.121"/></g><g id="XMLID_172_"><rect fill="#DAD9D8" height="1.409" id="XMLID_22988_" width="4.321" x="111.122" y="63.121"/></g><g id="XMLID_173_"><rect fill="#F37C5A" height="1.409" id="XMLID_22986_" width="7.296" x="102.762" y="63.121"/></g><g id="XMLID_174_"><g id="XMLID_175_"><rect fill="#DAD9D8" height="1.406" id="XMLID_176_" width="11.241" x="90.46" y="63.124"/></g></g></g><g id="XMLID_177_"><g id="XMLID_178_"><rect fill="#DAD9D8" height="1.409" id="XMLID_22980_" width="4.023" x="90.46" y="66.935"/></g><g id="XMLID_179_"><rect fill="#DAD9D8" height="1.409" id="XMLID_22978_" width="3.164" x="104.685" y="66.935"/></g><g id="XMLID_180_"><rect fill="#464E58" height="1.409" id="XMLID_22976_" width="5.087" x="108.913" y="66.935"/></g><g id="XMLID_181_"><rect fill="#DAD9D8" height="1.409" id="XMLID_22974_" width="6.695" x="115.064" y="66.935"/></g><g id="XMLID_182_"><rect fill="#DAD9D8" height="1.409" id="XMLID_22972_" width="3.479" x="122.822" y="66.935"/></g><g id="XMLID_183_"><rect fill="#F37C5A" height="1.409" id="XMLID_22970_" width="5.087" x="127.366" y="66.935"/></g><g id="XMLID_184_"><rect fill="#DAD9D8" height="1.409" id="XMLID_22968_" width="4.023" x="133.517" y="66.935"/></g></g><g id="XMLID_185_"><rect fill="#DAD9D8" height="1.409" id="XMLID_22965_" width="1.718" x="95.547" y="66.935"/></g><g id="XMLID_186_"><rect fill="#464E58" height="1.409" id="XMLID_22963_" width="5.292" x="98.329" y="66.935"/></g><g id="XMLID_187_"><g id="XMLID_188_"><rect fill="#DAD9D8" height="1.409" id="XMLID_22961_" width="3.479" x="145.818" y="70.749"/></g><g id="XMLID_189_"><rect fill="#464E58" height="1.409" id="XMLID_22959_" width="5.087" x="139.667" y="70.749"/></g><g id="XMLID_190_"><rect fill="#DAD9D8" height="1.409" id="XMLID_22957_" width="4.023" x="134.58" y="70.749"/></g><g id="XMLID_191_"><rect fill="#DAD9D8" height="1.406" id="XMLID_192_" width="14.011" x="119.503" y="70.749"/></g><g id="XMLID_193_"><rect fill="#DAD9D8" height="1.409" id="XMLID_22953_" width="1.933" x="116.507" y="70.749"/></g><g id="XMLID_194_"><rect fill="#DAD9D8" height="1.409" id="XMLID_22951_" width="8.642" x="106.801" y="70.749"/></g><g id="XMLID_195_"><rect fill="#DAD9D8" height="1.406" id="XMLID_196_" width="6.048" x="99.685" y="70.749"/></g><g id="XMLID_197_"><rect fill="#F37C5A" height="1.409" id="XMLID_22947_" width="8.162" x="90.46" y="70.749"/></g></g><g id="XMLID_198_"><g id="XMLID_199_"><rect fill="#DAD9D8" height="1.409" id="XMLID_22944_" width="5.087" x="90.46" y="74.563"/></g><g id="XMLID_200_"><rect fill="#DAD9D8" height="1.409" id="XMLID_22942_" width="3.164" x="104.685" y="74.563"/></g><g id="XMLID_201_"><rect fill="#F37C5A" height="1.409" id="XMLID_22940_" width="5.087" x="108.913" y="74.563"/></g><g id="XMLID_202_"><rect fill="#DAD9D8" height="1.409" id="XMLID_22938_" width="6.695" x="115.064" y="74.563"/></g><g id="XMLID_203_"><rect fill="#DAD9D8" height="1.409" id="XMLID_22936_" width="3.479" x="122.822" y="74.563"/></g><g id="XMLID_204_"><rect fill="#464E58" height="1.409" id="XMLID_22934_" width="5.087" x="127.366" y="74.563"/></g><g id="XMLID_205_"><rect fill="#DAD9D8" height="1.409" id="XMLID_22932_" width="4.023" x="133.517" y="74.563"/></g></g><g id="XMLID_206_"><rect fill="#464E58" height="1.406" id="XMLID_207_" width="7.006" x="96.613" y="74.562"/></g><g id="XMLID_208_"><g id="XMLID_209_"><rect fill="#DAD9D8" height="1.409" id="XMLID_22927_" width="3.164" x="164.271" y="78.377"/></g><g id="XMLID_210_"><rect fill="#464E58" height="1.409" id="XMLID_22925_" width="5.087" x="158.12" y="78.377"/></g><g id="XMLID_211_"><rect fill="#DAD9D8" height="1.409" id="XMLID_22923_" width="6.695" x="150.362" y="78.377"/></g><g id="XMLID_212_"><rect fill="#DAD9D8" height="1.409" id="XMLID_22921_" width="3.479" x="145.818" y="78.377"/></g><g id="XMLID_213_"><rect fill="#F37C5A" height="1.409" id="XMLID_22919_" width="5.087" x="139.667" y="78.377"/></g><g id="XMLID_214_"><rect fill="#DAD9D8" height="1.406" id="XMLID_215_" width="12.661" x="125.94" y="78.374"/></g><g id="XMLID_216_"><rect fill="#464E58" height="1.409" id="XMLID_22915_" width="5.371" x="119.504" y="78.377"/></g><g id="XMLID_217_"><rect fill="#DAD9D8" height="1.406" id="XMLID_218_" width="6.45" x="111.987" y="78.374"/></g><g id="XMLID_219_"><rect fill="#464E58" height="1.409" id="XMLID_22911_" width="8.164" x="102.762" y="78.377"/></g><g id="XMLID_220_"><rect fill="#DAD9D8" height="1.409" id="XMLID_22909_" width="2.011" x="99.687" y="78.377"/></g><g id="XMLID_221_"><rect fill="#DAD9D8" height="1.409" id="XMLID_22907_" width="8.162" x="90.46" y="78.377"/></g></g><g id="XMLID_222_"><g id="XMLID_223_"><rect fill="#DAD9D8" height="1.416" id="XMLID_224_" width="9.314" x="104.684" y="82.187"/></g></g><g id="XMLID_225_"><rect fill="#DAD9D8" height="1.416" id="XMLID_226_" width="6.801" x="90.46" y="82.187"/></g><g id="XMLID_227_"><rect fill="#464E58" height="1.409" id="XMLID_22899_" width="5.292" x="98.329" y="82.19"/></g><g id="XMLID_228_"><g id="XMLID_229_"><rect fill="#DAD9D8" height="1.409" id="XMLID_22897_" width="4.023" x="134.58" y="86.004"/></g><g id="XMLID_230_"><rect fill="#DAD9D8" height="1.409" id="XMLID_22895_" width="7.578" x="125.938" y="86.004"/></g><g id="XMLID_231_"><rect fill="#464E58" height="1.409" id="XMLID_22893_" width="5.371" x="119.504" y="86.004"/></g><g id="XMLID_232_"><rect fill="#DAD9D8" height="1.409" id="XMLID_22891_" width="1.933" x="116.507" y="86.004"/></g><g id="XMLID_233_"><rect fill="#DAD9D8" height="1.409" id="XMLID_22889_" width="6.53" x="108.913" y="86.004"/></g><g id="XMLID_234_"><rect fill="#464E58" height="1.409" id="XMLID_22887_" width="5.087" x="102.762" y="86.004"/></g><g id="XMLID_235_"><rect fill="#DAD9D8" height="1.409" id="XMLID_22885_" width="2.011" x="99.687" y="86.004"/></g><g id="XMLID_236_"><rect fill="#DAD9D8" height="1.409" id="XMLID_22883_" width="8.162" x="90.46" y="86.004"/></g></g><g id="XMLID_237_"><g id="XMLID_238_"><rect fill="#DAD9D8" height="1.409" id="XMLID_22880_" width="4.023" x="90.46" y="89.818"/></g><g id="XMLID_239_"><rect fill="#DAD9D8" height="1.409" id="XMLID_22878_" width="3.164" x="104.685" y="89.818"/></g><g id="XMLID_240_"><rect fill="#464E58" height="1.409" id="XMLID_22876_" width="5.087" x="108.913" y="89.818"/></g><g id="XMLID_241_"><rect fill="#DAD9D8" height="1.409" id="XMLID_22874_" width="6.695" x="115.064" y="89.818"/></g></g><g id="XMLID_242_"><rect fill="#DAD9D8" height="1.409" id="XMLID_22871_" width="1.718" x="95.547" y="89.818"/></g><g id="XMLID_243_"><rect fill="#F37C5A" height="1.409" id="XMLID_22869_" width="5.292" x="98.329" y="89.818"/></g><g id="XMLID_244_"><g id="XMLID_245_"><rect fill="#464E58" height="1.409" id="XMLID_22867_" width="6.642" x="156.565" y="93.632"/></g><g id="XMLID_246_"><rect fill="#F37C5A" height="1.409" id="XMLID_22865_" width="6.598" x="148.904" y="93.632"/></g><g id="XMLID_247_"><rect fill="#DAD9D8" height="1.409" id="XMLID_22863_" width="3.479" x="144.36" y="93.632"/></g><g id="XMLID_248_"><rect fill="#464E58" height="1.409" id="XMLID_22861_" width="5.087" x="138.21" y="93.632"/></g><g id="XMLID_249_"><rect fill="#DAD9D8" height="1.409" id="XMLID_22859_" width="4.161" x="132.985" y="93.632"/></g><g id="XMLID_250_"><rect fill="#DAD9D8" height="1.409" id="XMLID_22857_" width="5.982" x="125.938" y="93.632"/></g><g id="XMLID_251_"><rect fill="#F37C5A" height="1.409" id="XMLID_22855_" width="5.371" x="119.504" y="93.632"/></g><g id="XMLID_252_"><rect fill="#DAD9D8" height="1.409" id="XMLID_22853_" width="1.933" x="116.507" y="93.632"/></g><g id="XMLID_253_"><rect fill="#DAD9D8" height="1.409" id="XMLID_22851_" width="6.53" x="108.913" y="93.632"/></g><g id="XMLID_254_"><rect fill="#464E58" height="1.409" id="XMLID_22849_" width="5.087" x="102.762" y="93.632"/></g><g id="XMLID_255_"><rect fill="#DAD9D8" height="1.409" id="XMLID_22847_" width="2.011" x="99.687" y="93.632"/></g><g id="XMLID_256_"><rect fill="#DAD9D8" height="1.409" id="XMLID_22845_" width="8.162" x="90.46" y="93.632"/></g></g><g id="XMLID_257_"><g id="XMLID_258_"><rect fill="#DAD9D8" height="1.409" id="XMLID_22842_" width="5.72" x="90.46" y="97.445"/></g><g id="XMLID_259_"><rect fill="#F37C5A" height="1.406" id="XMLID_260_" width="9.314" x="104.684" y="97.447"/></g><g id="XMLID_261_"><rect fill="#DAD9D8" height="1.409" id="XMLID_22838_" width="6.695" x="115.064" y="97.445"/></g><g id="XMLID_262_"><rect fill="#DAD9D8" height="1.409" id="XMLID_22836_" width="3.479" x="122.822" y="97.445"/></g><g id="XMLID_263_"><rect fill="#464E58" height="1.409" id="XMLID_22834_" width="5.087" x="127.366" y="97.445"/></g><g id="XMLID_264_"><rect fill="#DAD9D8" height="1.409" id="XMLID_22832_" width="4.023" x="133.517" y="97.445"/></g><g id="XMLID_265_"><rect fill="#DAD9D8" height="1.409" id="XMLID_22830_" width="7.578" x="138.604" y="97.445"/></g></g><g id="XMLID_266_"><rect fill="#464E58" height="1.406" id="XMLID_267_" width="6.375" x="97.243" y="97.447"/></g><g id="XMLID_268_"><g id="XMLID_269_"><rect fill="#464E58" height="1.409" id="XMLID_22825_" width="5.087" x="102.762" y="101.259"/></g><g id="XMLID_270_"><rect fill="#DAD9D8" height="1.409" id="XMLID_22823_" width="2.011" x="99.687" y="101.259"/></g><g id="XMLID_271_"><rect fill="#DAD9D8" height="1.409" id="XMLID_22821_" width="8.162" x="90.46" y="101.259"/></g></g><g id="XMLID_272_"><g id="XMLID_273_"><rect fill="#DAD9D8" height="1.409" id="XMLID_22818_" width="6.625" x="101.224" y="105.073"/></g><g id="XMLID_274_"><rect fill="#464E58" height="1.406" id="XMLID_275_" width="12.848" x="108.91" y="105.072"/></g><g id="XMLID_276_"><rect fill="#DAD9D8" height="1.409" id="XMLID_22814_" width="3.479" x="122.822" y="105.073"/></g></g><g id="XMLID_277_"><rect fill="#F37C5A" height="1.406" id="XMLID_278_" width="9.705" x="90.46" y="105.072"/></g><g id="XMLID_279_"><g id="XMLID_280_"><g id="XMLID_281_"><rect fill="#DAD9D8" height="1.409" id="XMLID_22809_" width="1.933" x="116.507" y="108.887"/></g><g id="XMLID_282_"><rect fill="#F37C5A" height="1.409" id="XMLID_22807_" width="6.53" x="108.913" y="108.887"/></g><g id="XMLID_283_"><rect fill="#464E58" height="1.409" id="XMLID_22805_" width="5.087" x="102.762" y="108.887"/></g><g id="XMLID_284_"><rect fill="#DAD9D8" height="1.409" id="XMLID_22803_" width="2.011" x="99.687" y="108.887"/></g><g id="XMLID_285_"><rect fill="#DAD9D8" height="1.409" id="XMLID_22801_" width="8.162" x="90.46" y="108.887"/></g></g></g><g id="XMLID_286_"><circle cx="77.656" cy="59.451" fill="#DAD9D8" id="XMLID_22797_" r="0.916"/></g><g id="XMLID_287_"><circle cx="77.656" cy="64.057" fill="#DAD9D8" id="XMLID_22795_" r="0.916"/></g><g id="XMLID_288_"><circle cx="77.656" cy="68.663" fill="#DAD9D8" id="XMLID_22793_" r="0.916"/></g><g id="XMLID_289_"><circle cx="77.656" cy="73.269" fill="#DAD9D8" id="XMLID_22791_" r="0.916"/></g><g id="XMLID_290_"><circle cx="77.656" cy="77.876" fill="#DAD9D8" id="XMLID_22789_" r="0.916"/></g><g id="XMLID_291_"><circle cx="77.656" cy="82.482" fill="#DAD9D8" id="XMLID_22787_" r="0.916"/></g><g id="XMLID_292_"><circle cx="77.656" cy="87.088" fill="#DAD9D8" id="XMLID_22785_" r="0.916"/></g><g id="XMLID_293_"><circle cx="77.656" cy="91.694" fill="#DAD9D8" id="XMLID_22783_" r="0.916"/></g><g id="XMLID_294_"><circle cx="77.656" cy="96.301" fill="#DAD9D8" id="XMLID_22781_" r="0.916"/></g><g id="XMLID_295_"><circle cx="77.656" cy="100.907" fill="#DAD9D8" id="XMLID_22779_" r="0.916"/></g><g id="XMLID_296_"><circle cx="77.656" cy="105.513" fill="#DAD9D8" id="XMLID_22777_" r="0.916"/></g><g id="XMLID_297_"><circle cx="77.656" cy="110.119" fill="#DAD9D8" id="XMLID_22775_" r="0.916"/></g></g><g id="XMLID_298_"><g id="XMLID_299_"><path d="M113.846,23.719V19.3l-4.485-1c-0.315-1.248-0.806-2.425-1.453-3.502l2.469-3.878      l-3.132-3.132l-3.878,2.469c-1.077-0.646-2.254-1.138-3.502-1.453l-1-4.485h-4.419l-1,4.485      c-1.248,0.315-2.425,0.806-3.502,1.453l-3.878-2.469l-3.132,3.132l2.469,3.878c-0.641,1.077-1.138,2.254-1.447,3.502l-4.491,1      v4.419l4.491,1c0.309,1.248,0.806,2.425,1.447,3.502l-2.469,3.877l3.132,3.132l3.878-2.469c1.077,0.646,2.254,1.138,3.502,1.453      l1,4.485h4.419l1-4.485c1.248-0.315,2.425-0.806,3.502-1.453l3.878,2.469l3.132-3.132l-2.469-3.877      c0.646-1.077,1.138-2.254,1.453-3.502L113.846,23.719z M96.657,26.332c-2.662,0-4.822-2.16-4.822-4.822      c0-2.662,2.16-4.822,4.822-4.822c2.662,0,4.822,2.16,4.822,4.822C101.479,24.172,99.319,26.332,96.657,26.332z" fill="#464E58" id="XMLID_300_"/></g></g><g id="XMLID_303_"><g id="XMLID_304_"><g id="XMLID_305_"><g id="XMLID_306_"><rect fill="#464E58" height="74.192" id="XMLID_307_" width="57.349" x="0.091" y="31.898"/></g></g></g><g id="XMLID_308_"><g id="XMLID_309_"><g id="XMLID_310_"><g id="XMLID_311_"><rect fill="#DAD9D8" height="1.416" id="XMLID_22763_" width="5.112" x="25.363" y="37.763"/></g><g id="XMLID_312_"><rect fill="#DAD9D8" height="1.416" id="XMLID_22761_" width="6.728" x="31.545" y="37.763"/></g></g><g id="XMLID_313_"><rect fill="#DAD9D8" height="1.413" id="XMLID_314_" width="5.335" x="6.818" y="37.766"/></g><g id="XMLID_315_"><g id="XMLID_316_"><rect fill="#F37C5A" height="1.413" id="XMLID_317_" width="11.065" x="13.225" y="37.766"/></g></g></g><g id="XMLID_318_"><g id="XMLID_319_"><g id="XMLID_320_"><rect fill="#DAD9D8" height="1.416" id="XMLID_22752_" width="7.616" x="42.474" y="41.595"/></g><g id="XMLID_321_"><rect fill="#F37C5A" height="1.416" id="XMLID_22750_" width="5.398" x="36.007" y="41.595"/></g><g id="XMLID_322_"><rect fill="#DAD9D8" height="1.416" id="XMLID_22748_" width="1.942" x="32.995" y="41.595"/></g><g id="XMLID_323_"><rect fill="#DAD9D8" height="1.416" id="XMLID_22746_" width="4.342" x="27.584" y="41.595"/></g><g id="XMLID_324_"><rect fill="#7CCEDC" height="1.416" id="XMLID_22744_" width="7.332" x="19.182" y="41.595"/></g><g id="XMLID_325_"><g id="XMLID_326_"><rect fill="#DAD9D8" height="1.413" id="XMLID_327_" width="11.297" x="6.818" y="41.598"/></g></g></g></g><g id="XMLID_328_"><g id="XMLID_329_"><g id="XMLID_330_"><rect fill="#DAD9D8" height="1.416" id="XMLID_22737_" width="4.043" x="6.819" y="45.428"/></g><g id="XMLID_331_"><rect fill="#DAD9D8" height="1.416" id="XMLID_22735_" width="3.18" x="21.114" y="45.428"/></g><g id="XMLID_332_"><rect fill="#F37C5A" height="1.416" id="XMLID_22733_" width="5.112" x="25.363" y="45.428"/></g><g id="XMLID_333_"><rect fill="#DAD9D8" height="1.416" id="XMLID_22731_" width="6.728" x="31.545" y="45.428"/></g><g id="XMLID_334_"><rect fill="#DAD9D8" height="1.416" id="XMLID_22729_" width="3.497" x="39.342" y="45.428"/></g><g id="XMLID_335_"><rect fill="#7CCEDC" height="1.416" id="XMLID_22727_" width="5.112" x="43.908" y="45.428"/></g></g><g id="XMLID_336_"><rect fill="#DAD9D8" height="1.416" id="XMLID_22724_" width="1.726" x="11.931" y="45.428"/></g><g id="XMLID_337_"><rect fill="#F37C5A" height="1.416" id="XMLID_22722_" width="5.318" x="14.727" y="45.428"/></g></g><g id="XMLID_338_"><g id="XMLID_339_"><g id="XMLID_340_"><rect fill="#DAD9D8" height="1.413" id="XMLID_341_" width="14.081" x="36.006" y="49.261"/></g><g id="XMLID_342_"><rect fill="#DAD9D8" height="1.416" id="XMLID_22717_" width="1.942" x="32.995" y="49.261"/></g><g id="XMLID_343_"><rect fill="#DAD9D8" height="1.416" id="XMLID_22715_" width="8.685" x="23.241" y="49.261"/></g><g id="XMLID_344_"><rect fill="#DAD9D8" height="1.413" id="XMLID_345_" width="6.078" x="16.09" y="49.261"/></g><g id="XMLID_346_"><rect fill="#7CCEDC" height="1.416" id="XMLID_22711_" width="8.203" x="6.819" y="49.261"/></g></g></g><g id="XMLID_347_"><g id="XMLID_348_"><g id="XMLID_349_"><rect fill="#DAD9D8" height="1.416" id="XMLID_22707_" width="5.112" x="6.819" y="53.094"/></g><g id="XMLID_350_"><rect fill="#DAD9D8" height="1.416" id="XMLID_22705_" width="3.18" x="21.114" y="53.094"/></g><g id="XMLID_351_"><rect fill="#7CCEDC" height="1.416" id="XMLID_22703_" width="5.112" x="25.363" y="53.094"/></g><g id="XMLID_352_"><rect fill="#DAD9D8" height="1.416" id="XMLID_22701_" width="6.728" x="31.545" y="53.094"/></g><g id="XMLID_353_"><rect fill="#DAD9D8" height="1.416" id="XMLID_22699_" width="3.497" x="39.342" y="53.094"/></g><g id="XMLID_354_"><rect fill="#F37C5A" height="1.416" id="XMLID_22697_" width="5.112" x="43.908" y="53.094"/></g></g><g id="XMLID_355_"><rect fill="#F37C5A" height="1.413" id="XMLID_356_" width="7.04" x="13.002" y="53.093"/></g></g><g id="XMLID_357_"><rect fill="#DAD9D8" height="1.413" id="XMLID_358_" width="8.237" x="42.475" y="56.924"/></g><g id="XMLID_359_"><rect fill="#F37C5A" height="1.416" id="XMLID_22689_" width="5.398" x="36.007" y="56.926"/></g><g id="XMLID_360_"><rect fill="#DAD9D8" height="1.413" id="XMLID_361_" width="6.483" x="28.453" y="56.924"/></g><g id="XMLID_362_"><rect fill="#F37C5A" height="1.416" id="XMLID_22685_" width="8.204" x="19.182" y="56.926"/></g><g id="XMLID_363_"><rect fill="#DAD9D8" height="1.416" id="XMLID_22683_" width="2.022" x="16.091" y="56.926"/></g><g id="XMLID_364_"><rect fill="#DAD9D8" height="1.416" id="XMLID_22681_" width="8.203" x="6.819" y="56.926"/></g><g id="XMLID_365_"><g id="XMLID_366_"><g id="XMLID_367_"><rect fill="#DAD9D8" height="1.423" id="XMLID_368_" width="9.36" x="21.113" y="60.756"/></g></g><g id="XMLID_369_"><rect fill="#DAD9D8" height="1.423" id="XMLID_370_" width="6.835" x="6.818" y="60.756"/></g><g id="XMLID_371_"><rect fill="#F37C5A" height="1.416" id="XMLID_22674_" width="5.318" x="14.727" y="60.759"/></g></g><g id="XMLID_372_"><g id="XMLID_373_"><g id="XMLID_374_"><rect fill="#DAD9D8" height="1.416" id="XMLID_22671_" width="7.616" x="42.474" y="64.592"/></g><g id="XMLID_375_"><rect fill="#F37C5A" height="1.416" id="XMLID_22669_" width="5.398" x="36.007" y="64.592"/></g><g id="XMLID_376_"><rect fill="#DAD9D8" height="1.416" id="XMLID_22667_" width="1.942" x="32.995" y="64.592"/></g><g id="XMLID_377_"><rect fill="#DAD9D8" height="1.416" id="XMLID_22665_" width="6.563" x="25.363" y="64.592"/></g><g id="XMLID_378_"><rect fill="#F37C5A" height="1.416" id="XMLID_22663_" width="5.112" x="19.182" y="64.592"/></g><g id="XMLID_379_"><rect fill="#DAD9D8" height="1.416" id="XMLID_22661_" width="2.022" x="16.091" y="64.592"/></g><g id="XMLID_380_"><rect fill="#DAD9D8" height="1.416" id="XMLID_22659_" width="8.203" x="6.819" y="64.592"/></g></g></g><g id="XMLID_381_"><g id="XMLID_382_"><g id="XMLID_383_"><rect fill="#DAD9D8" height="1.416" id="XMLID_22655_" width="4.043" x="6.819" y="68.425"/></g><g id="XMLID_384_"><rect fill="#DAD9D8" height="1.416" id="XMLID_22653_" width="3.18" x="21.114" y="68.425"/></g><g id="XMLID_385_"><rect fill="#F37C5A" height="1.416" id="XMLID_22651_" width="5.112" x="25.363" y="68.425"/></g><g id="XMLID_386_"><rect fill="#DAD9D8" height="1.416" id="XMLID_22649_" width="6.728" x="31.545" y="68.425"/></g></g><g id="XMLID_387_"><rect fill="#DAD9D8" height="1.416" id="XMLID_22646_" width="1.726" x="11.931" y="68.425"/></g><g id="XMLID_388_"><rect fill="#7CCEDC" height="1.416" id="XMLID_22644_" width="5.318" x="14.727" y="68.425"/></g></g><g id="XMLID_389_"><g id="XMLID_390_"><g id="XMLID_391_"><rect fill="#DAD9D8" height="1.416" id="XMLID_22641_" width="6.012" x="42.474" y="72.257"/></g><g id="XMLID_392_"><rect fill="#7CCEDC" height="1.416" id="XMLID_22639_" width="5.398" x="36.007" y="72.257"/></g><g id="XMLID_393_"><rect fill="#DAD9D8" height="1.416" id="XMLID_22637_" width="1.942" x="32.995" y="72.257"/></g><g id="XMLID_394_"><rect fill="#DAD9D8" height="1.416" id="XMLID_22635_" width="6.563" x="25.363" y="72.257"/></g><g id="XMLID_395_"><rect fill="#F37C5A" height="1.416" id="XMLID_22633_" width="5.112" x="19.182" y="72.257"/></g><g id="XMLID_396_"><rect fill="#DAD9D8" height="1.416" id="XMLID_22631_" width="2.022" x="16.091" y="72.257"/></g><g id="XMLID_397_"><rect fill="#DAD9D8" height="1.416" id="XMLID_22629_" width="8.203" x="6.819" y="72.257"/></g></g></g><g id="XMLID_398_"><g id="XMLID_399_"><g id="XMLID_400_"><rect fill="#DAD9D8" height="1.416" id="XMLID_22625_" width="5.749" x="6.819" y="76.09"/></g><g id="XMLID_401_"><rect fill="#7CCEDC" height="1.413" id="XMLID_402_" width="9.36" x="21.113" y="76.092"/></g><g id="XMLID_403_"><rect fill="#DAD9D8" height="1.416" id="XMLID_22621_" width="6.728" x="31.545" y="76.09"/></g><g id="XMLID_404_"><rect fill="#DAD9D8" height="1.416" id="XMLID_22619_" width="3.497" x="39.342" y="76.09"/></g><g id="XMLID_405_"><rect fill="#F37C5A" height="1.416" id="XMLID_22617_" width="5.112" x="43.908" y="76.09"/></g></g><g id="XMLID_406_"><rect fill="#F37C5A" height="1.413" id="XMLID_407_" width="6.407" x="13.636" y="76.092"/></g></g><g id="XMLID_408_"><g id="XMLID_409_"><g id="XMLID_410_"><rect fill="#F37C5A" height="1.416" id="XMLID_22611_" width="5.112" x="19.182" y="79.923"/></g><g id="XMLID_411_"><rect fill="#DAD9D8" height="1.416" id="XMLID_22609_" width="2.022" x="16.091" y="79.923"/></g><g id="XMLID_412_"><rect fill="#DAD9D8" height="1.416" id="XMLID_22607_" width="8.203" x="6.819" y="79.923"/></g></g></g><g id="XMLID_413_"><g id="XMLID_414_"><g id="XMLID_415_"><rect fill="#DAD9D8" height="1.416" id="XMLID_22603_" width="6.658" x="17.637" y="83.756"/></g><g id="XMLID_416_"><rect fill="#F37C5A" height="1.413" id="XMLID_417_" width="12.912" x="25.361" y="83.755"/></g><g id="XMLID_418_"><rect fill="#DAD9D8" height="1.416" id="XMLID_22599_" width="3.497" x="39.342" y="83.756"/></g></g><g id="XMLID_419_"><rect fill="#7CCEDC" height="1.413" id="XMLID_420_" width="9.753" x="6.818" y="83.755"/></g></g><g id="XMLID_421_"><g id="XMLID_422_"><g id="XMLID_423_"><g id="XMLID_424_"><rect fill="#DAD9D8" height="1.416" id="XMLID_22593_" width="1.942" x="32.995" y="87.588"/></g><g id="XMLID_425_"><rect fill="#7CCEDC" height="1.416" id="XMLID_22591_" width="6.563" x="25.363" y="87.588"/></g><g id="XMLID_426_"><rect fill="#F37C5A" height="1.416" id="XMLID_22589_" width="5.112" x="19.182" y="87.588"/></g><g id="XMLID_427_"><rect fill="#DAD9D8" height="1.416" id="XMLID_22587_" width="2.022" x="16.091" y="87.588"/></g><g id="XMLID_428_"><rect fill="#DAD9D8" height="1.416" id="XMLID_22585_" width="8.203" x="6.819" y="87.588"/></g></g></g></g></g></g><g id="XMLID_429_"><g id="XMLID_430_"><g id="XMLID_431_"><g id="XMLID_432_"><path d="M65.111,20.459v14.303c0,1.709-1.386,3.095-3.095,3.095H41.975        c-1.709,0-3.095-1.386-3.095-3.095V20.459c0-1.709,1.386-3.095,3.095-3.095h20.041C63.725,17.364,65.111,18.75,65.111,20.459z        " fill="#FDDA7F" id="XMLID_433_"/></g></g></g><g id="XMLID_434_"><g id="XMLID_435_"><path d="M46.907,24.846c0.466,0.39,0.7,0.99,0.7,1.802s-0.238,1.406-0.714,1.782       c-0.476,0.377-1.206,0.566-2.19,0.566h-1.188v1.965h-1.131v-6.699h2.3C45.699,24.261,46.44,24.456,46.907,24.846z        M46.106,27.61c0.227-0.239,0.34-0.591,0.34-1.054c0-0.463-0.144-0.791-0.431-0.982c-0.287-0.192-0.738-0.288-1.351-0.288       h-1.15v2.684h1.313C45.453,27.97,45.88,27.85,46.106,27.61z" fill="#FFFFFF" id="XMLID_436_"/></g><g id="XMLID_439_"><path d="M48.938,30.96v-6.699h1.131v2.904h3.325v-2.904h1.131v6.699h-1.131v-2.741h-3.325       v2.741H48.938z" fill="#FFFFFF" id="XMLID_440_"/></g><g id="XMLID_442_"><path d="M60.908,24.846c0.466,0.39,0.7,0.99,0.7,1.802s-0.238,1.406-0.714,1.782       c-0.476,0.377-1.206,0.566-2.19,0.566h-1.188v1.965h-1.131v-6.699h2.3C59.701,24.261,60.442,24.456,60.908,24.846z        M60.108,27.61c0.227-0.239,0.34-0.591,0.34-1.054c0-0.463-0.144-0.791-0.431-0.982c-0.287-0.192-0.738-0.288-1.351-0.288       h-1.15v2.684h1.313C59.455,27.97,59.881,27.85,60.108,27.61z" fill="#FFFFFF" id="XMLID_443_"/></g></g></g><g id="XMLID_446_"><g id="XMLID_447_"><g id="XMLID_448_"><rect fill="#F7BB52" height="27.226" id="XMLID_449_" width="42.033" x="134.21" y="8.926"/></g></g><g id="XMLID_450_"><g id="XMLID_451_"><polygon fill="#FDDA7F" id="XMLID_452_" points="176.242,36.152 155.226,15.136 134.21,36.152      "/></g></g><g id="XMLID_22553_"><g id="XMLID_454_"><polygon fill="#FFFFFF" id="XMLID_22555_" points="134.21,8.926 155.226,29.942 176.242,8.926      "/></g></g></g><g id="XMLID_453_"><g id="XMLID_455_"><g id="XMLID_456_"><path d="M244.123,20.698v2.53c0.418,0.196,0.709,0.617,0.709,1.109       c0,0.678-0.55,1.228-1.228,1.228c-0.678,0-1.228-0.55-1.228-1.228c0-0.492,0.291-0.914,0.709-1.109v-2.53h-4.843v2.53       c0.418,0.196,0.709,0.617,0.709,1.109c0,0.678-0.55,1.228-1.228,1.228c-0.678,0-1.228-0.55-1.228-1.228       c0-0.492,0.291-0.914,0.709-1.109v-2.53h-4.843v2.53c0.418,0.196,0.709,0.617,0.709,1.109c0,0.678-0.55,1.228-1.228,1.228       c-0.678,0-1.228-0.55-1.228-1.228c0-0.492,0.291-0.913,0.709-1.109v-2.53h-4.843v2.53c0.418,0.196,0.709,0.617,0.709,1.109       c0,0.678-0.55,1.228-1.228,1.228c-0.678,0-1.228-0.55-1.228-1.228c0-0.492,0.291-0.913,0.709-1.109v-2.53h-4.843v2.53       c0.418,0.196,0.709,0.617,0.709,1.109c0,0.678-0.55,1.228-1.228,1.228c-0.678,0-1.228-0.55-1.228-1.228       c0-0.492,0.291-0.913,0.709-1.109v-2.53h-4.843v2.53c0.418,0.196,0.709,0.617,0.709,1.109c0,0.678-0.55,1.228-1.228,1.228       c-0.678,0-1.228-0.55-1.228-1.228c0-0.492,0.291-0.914,0.709-1.109v-2.53h-4.843v2.53c0.418,0.196,0.709,0.617,0.709,1.109       c0,0.678-0.55,1.228-1.228,1.228c-0.678,0-1.228-0.55-1.228-1.228c0-0.492,0.291-0.914,0.709-1.109v-2.53h-4.843v2.53       c0.418,0.196,0.709,0.617,0.709,1.109c0,0.678-0.55,1.228-1.228,1.228c-0.678,0-1.228-0.55-1.228-1.228       c0-0.492,0.291-0.914,0.709-1.109v-2.53h-4.654V86.42h51.508V20.698H244.123z" fill="#F2F2F2" id="XMLID_457_"/></g></g><g id="XMLID_458_"><g id="XMLID_459_"><g id="XMLID_460_"><rect fill="#7CCEDC" height="0.303" id="XMLID_461_" width="51.508" x="197.269" y="29.805"/></g></g><g id="XMLID_462_"><g id="XMLID_463_"><rect fill="#DAD9D8" height="0.303" id="XMLID_464_" width="51.508" x="197.269" y="34.1"/></g></g><g id="XMLID_465_"><g id="XMLID_466_"><rect fill="#DAD9D8" height="0.303" id="XMLID_467_" width="51.508" x="197.269" y="38.396"/></g></g><g id="XMLID_468_"><g id="XMLID_469_"><rect fill="#DAD9D8" height="0.303" id="XMLID_470_" width="51.508" x="197.269" y="42.692"/></g></g><g id="XMLID_471_"><g id="XMLID_472_"><rect fill="#DAD9D8" height="0.303" id="XMLID_473_" width="51.508" x="197.269" y="46.988"/></g></g><g id="XMLID_474_"><g id="XMLID_475_"><rect fill="#DAD9D8" height="0.303" id="XMLID_476_" width="51.508" x="197.269" y="51.284"/></g></g><g id="XMLID_477_"><g id="XMLID_478_"><rect fill="#DAD9D8" height="0.303" id="XMLID_479_" width="51.508" x="197.269" y="55.58"/></g></g><g id="XMLID_480_"><g id="XMLID_481_"><rect fill="#DAD9D8" height="0.303" id="XMLID_482_" width="51.508" x="197.269" y="59.876"/></g></g><g id="XMLID_483_"><g id="XMLID_484_"><rect fill="#DAD9D8" height="0.303" id="XMLID_485_" width="51.508" x="197.269" y="64.172"/></g></g><g id="XMLID_486_"><g id="XMLID_487_"><rect fill="#DAD9D8" height="0.303" id="XMLID_488_" width="51.508" x="197.269" y="68.468"/></g></g><g id="XMLID_489_"><g id="XMLID_490_"><rect fill="#DAD9D8" height="0.303" id="XMLID_491_" width="51.508" x="197.269" y="72.764"/></g></g><g id="XMLID_492_"><g id="XMLID_493_"><rect fill="#DAD9D8" height="0.303" id="XMLID_494_" width="51.508" x="197.269" y="77.059"/></g></g><g id="XMLID_495_"><g id="XMLID_496_"><rect fill="#DAD9D8" height="0.303" id="XMLID_497_" width="51.508" x="197.269" y="81.355"/></g></g></g><g id="XMLID_498_"><g id="XMLID_499_"><rect fill="#F37C5A" height="58.809" id="XMLID_500_" width="0.32" x="205.621" y="27.61"/></g></g></g><g id="XMLID_501_"><g id="XMLID_502_"><g id="XMLID_503_"><path d="M78.593,95.63v15.283c0,1.835-1.49,3.317-3.317,3.317H47.932       c-1.827,0-3.309-1.482-3.309-3.317V95.63c0-1.827,1.482-3.317,3.309-3.317h27.344C77.103,92.313,78.593,93.803,78.593,95.63z" fill="#F37C5A" id="XMLID_504_"/></g></g><g id="XMLID_505_"><g id="XMLID_506_"><path d="M49.108,106.391v-6.239h1.053v2.704h3.097v-2.704h1.053v6.239h-1.053v-2.553h-3.097       v2.553H49.108z" fill="#FFFFFF" id="XMLID_507_"/></g><g id="XMLID_509_"><path d="M58.399,101.116v5.275h-1.053v-5.275h-1.892v-0.964h4.838v0.964H58.399z" fill="#FFFFFF" id="XMLID_510_"/></g><g id="XMLID_512_"><path d="M62.487,106.391h-1.053v-6.239h1.642l1.883,3.918l1.883-3.918h1.634v6.239h-1.053       v-4.874l-2.178,4.329h-0.589l-2.169-4.329V106.391z" fill="#FFFFFF" id="XMLID_513_"/></g><g id="XMLID_515_"><path d="M70.208,106.391v-6.239h1.053v5.239h2.847v1H70.208z" fill="#FFFFFF" id="XMLID_516_"/></g></g></g><g id="XMLID_518_"><path d="M191.038,77.203c-7.058,0-12.79,5.724-12.79,12.782c0,3.352,1.288,6.399,3.4,8.683v7.074l6.838-3.219     c0.824,0.165,1.68,0.251,2.552,0.251c7.066,0,12.79-5.724,12.79-12.79C203.828,82.927,198.104,77.203,191.038,77.203z" fill="#F37C5A"/><g id="XMLID_521_"><g id="XMLID_522_"><g id="XMLID_523_"><path d="M182.204,90.454v-1.529l5.715-2.645v1.383l-4.271,1.929v0.133l4.271,1.978v1.383        L182.204,90.454z" fill="#FFFFFF" id="XMLID_524_"/></g></g><g id="XMLID_525_"><g id="XMLID_526_"><polygon fill="#FFFFFF" id="XMLID_22480_" points="190.612,95.126 192.838,84.852 191.624,84.852 189.398,95.126       "/></g></g><g id="XMLID_527_"><path d="M199.874,88.925v1.529l-5.715,2.633v-1.383l4.271-1.978v-0.133l-4.271-1.929V86.28       L199.874,88.925z" fill="#FFFFFF" id="XMLID_528_"/></g></g></g><g id="XMLID_529_"><g id="XMLID_530_"><g id="XMLID_531_"><g id="XMLID_532_"><g id="XMLID_533_"><path d="M172.88,167.407c0-1.541-1.29-2.781-2.849-2.7c-1.462,0.077-2.558,1.389-2.558,2.853         v9.665h-0.95v-17.94c0-1.493-1.21-2.703-2.704-2.703l0,0c-1.493,0-2.703,1.21-2.703,2.703v17.94h-0.95v-19.694         c0-1.493-1.21-2.704-2.703-2.704h0c-1.493,0-2.703,1.21-2.703,2.704v19.694h-0.95v-18.318c0-1.464-1.096-2.776-2.558-2.853         c-1.559-0.082-2.849,1.158-2.849,2.7v25.689l-1.666-2.001l-1.018-5.405c-0.373-2.361-2.8-3.801-5.05-2.997l0.181,9.191         c0.025,1.271,0.388,2.512,1.051,3.596l6.502,10.622l0.004-0.015v0.015l3.344,6.562l19.126,0.644l1.2-4.327         c0.531-1.913,0.8-3.889,0.8-5.874L172.88,167.407z" fill="#F7BB52" id="XMLID_534_"/></g><g id="XMLID_535_"><path d="M112.807,177.037l-1.018,5.405l-1.666,2.001v-25.689c0-1.493-1.21-2.704-2.703-2.704         h0c-1.493,0-2.703,1.21-2.703,2.704v18.471h-0.95v-19.694c0-1.493-1.21-2.704-2.703-2.704l0,0         c-1.493,0-2.703,1.21-2.703,2.704v19.694h-0.95v-17.787c0-1.464-1.096-2.776-2.558-2.853c-1.559-0.082-2.849,1.158-2.849,2.7         v17.94h-0.95v-9.665c0-1.464-1.096-2.776-2.558-2.853c-1.559-0.082-2.849,1.158-2.849,2.7l0.003,27.048         c0,1.985,0.269,3.961,0.8,5.874l1.2,4.327l19.126-0.644l3.344-6.562v-0.015l0.004,0.015l6.502-10.622         c0.663-1.084,1.026-2.325,1.051-3.596l0.181-9.191C115.607,173.237,113.18,174.677,112.807,177.037z" fill="#F7BB52" id="XMLID_536_"/></g></g></g></g><g id="XMLID_537_"><g id="XMLID_538_"><g id="XMLID_539_"><g id="XMLID_540_"><g id="XMLID_541_"><rect fill="#FFFFFF" height="8.038" id="XMLID_542_" width="27.056" x="147.466" y="200.192"/></g></g><g id="XMLID_543_"><g id="XMLID_544_"><rect fill="#464E58" height="55.855" id="XMLID_22462_" width="32.213" x="144.31" y="202.611"/></g></g></g></g><g id="XMLID_545_"><g id="XMLID_546_"><rect fill="#FFFFFF" height="8.038" id="XMLID_547_" width="27.056" x="84.005" y="200.192"/></g></g><g id="XMLID_548_"><g id="XMLID_549_"><rect fill="#464E58" height="55.855" id="XMLID_22454_" width="32.213" x="82.003" y="202.611"/></g></g></g></g><g id="XMLID_550_"><g id="XMLID_551_"><g id="XMLID_552_"><g id="XMLID_553_"><path d="M60.327,163.291c0,4.756-3.859,8.615-8.619,8.615H18.543        c-5.217,0-9.446-4.229-9.446-9.446c0-4.517,3.172-8.294,7.41-9.224c-0.3-1.053-0.461-2.164-0.461-3.316        c0-6.723,5.447-12.17,12.166-12.17c4.18,0,7.866,2.107,10.059,5.316c1.946-0.535,4.057-0.58,6.151-0.041        c5.488,1.415,9.113,6.394,9.031,11.82C57.377,155.655,60.327,159.127,60.327,163.291z" fill="#FFFFFF" id="XMLID_554_"/></g></g><g id="XMLID_555_" opacity="0.5"><g id="XMLID_556_"><g id="XMLID_557_"><path d="M18.105,154.024c-0.14-0.307-0.219-0.643-0.238-0.983         c-4.901,0.347-8.77,4.43-8.77,9.419c0,5.217,4.229,9.446,9.446,9.446c0.444,0,0.881-0.029,1.308-0.09         C10.328,170.512,9.026,157.175,18.105,154.024z" fill="#F2F2F2" id="XMLID_558_"/></g></g><g id="XMLID_559_"><g id="XMLID_560_"><path d="M52.171,154.695c0.073,0.497,0.014,1.017-0.176,1.477         c6.906,2.567,7.594,12.048,1.185,15.606c4.061-0.699,7.146-4.234,7.146-8.488C60.327,158.687,56.715,154.937,52.171,154.695z         " fill="#F2F2F2" id="XMLID_561_"/></g></g><g id="XMLID_562_"><g id="XMLID_563_"><path d="M38.915,144.143c-2.056-3.806-6.073-6.393-10.703-6.393         c-6.719,0-12.166,5.447-12.166,12.17c0,3.995,1.926,7.541,4.904,9.763c-1.514-1.971-2.415-4.443-2.415-7.122         c0-10.484,12.77-15.669,20.079-8.2C38.707,144.282,38.806,144.207,38.915,144.143z" fill="#F2F2F2" id="XMLID_564_"/></g></g><g id="XMLID_565_"><path d="M53.07,157.675c-0.88,3.419-3.152,6.118-6.048,7.64        c6.727-6.139,3.997-17.432-4.921-19.728c-4.114-1.061-8.282,0.234-11.08,3.04c2.637-4.546,8.064-6.982,13.4-5.604        C50.856,144.682,54.728,151.24,53.07,157.675z" fill="#F2F2F2" id="XMLID_566_"/></g></g></g><g id="XMLID_567_"><g id="XMLID_568_"><g id="XMLID_569_"><path d="M35.071,166.35v-1.807l-1.834-0.409c-0.129-0.51-0.33-0.991-0.594-1.432l1.009-1.585        l-1.28-1.281l-1.585,1.01c-0.44-0.264-0.921-0.465-1.432-0.594l-0.409-1.834h-1.807l-0.409,1.834        c-0.51,0.129-0.991,0.33-1.432,0.594l-1.585-1.01l-1.281,1.281l1.01,1.585c-0.262,0.44-0.465,0.921-0.592,1.432l-1.836,0.409        v1.807l1.836,0.409c0.126,0.51,0.33,0.991,0.592,1.432l-1.01,1.585l1.281,1.28l1.585-1.009        c0.44,0.264,0.921,0.465,1.432,0.594l0.409,1.834h1.807l0.409-1.834c0.51-0.129,0.991-0.33,1.432-0.594l1.585,1.009l1.28-1.28        l-1.009-1.585c0.264-0.44,0.465-0.921,0.594-1.432L35.071,166.35z M28.042,167.418c-1.089,0-1.972-0.883-1.972-1.971        c0-1.089,0.883-1.972,1.972-1.972c1.089,0,1.972,0.883,1.972,1.972C30.014,166.535,29.131,167.418,28.042,167.418z" fill="#464E58" id="XMLID_570_"/></g></g><g id="XMLID_22424_"><g id="XMLID_22425_"><path d="M47.561,180.741l0.849-2.222l-2.063-1.364c0.081-0.688,0.06-1.374-0.058-2.04        l1.986-1.475l-0.973-2.176l-2.424,0.496c-0.417-0.532-0.914-1.005-1.481-1.403l0.359-2.447l-2.221-0.849l-1.364,2.063        c-0.688-0.081-1.374-0.06-2.039,0.058l-1.475-1.986l-2.176,0.973l0.496,2.424c-0.529,0.418-1.005,0.914-1.4,1.482l-2.45-0.36        l-0.849,2.221l2.066,1.365c-0.084,0.687-0.06,1.374,0.055,2.039l-1.986,1.475l0.973,2.176l2.423-0.497        c0.417,0.532,0.914,1.005,1.482,1.403l-0.359,2.447l2.222,0.849l1.364-2.063c0.688,0.081,1.374,0.06,2.039-0.058l1.475,1.986        l2.176-0.973l-0.496-2.424c0.532-0.417,1.005-0.914,1.403-1.481L47.561,180.741z M38.417,178.752        c-1.338-0.511-2.009-2.012-1.498-3.35c0.511-1.338,2.012-2.009,3.35-1.498c1.338,0.511,2.009,2.012,1.498,3.35        C41.256,178.593,39.756,179.264,38.417,178.752z" fill="#464E58" id="XMLID_22426_"/></g></g></g></g></g><g id="XMLID_22400_"><g id="XMLID_22419_"><path d="M238.319,91.473l-27.027-29.176c0.238,0.256,0.786,0.135,1.227-0.273     c0.437-0.405,0.601-0.943,0.363-1.2c0.238,0.256,0.786,0.135,1.224-0.271c0.441-0.408,0.601-0.943,0.363-1.2     c0.238,0.256,0.786,0.135,1.227-0.273c0.438-0.405,0.601-0.943,0.363-1.2l27.027,29.176L238.319,91.473z" fill="#F37C5A" id="XMLID_22420_"/></g><g id="XMLID_22417_"><rect fill="#F2F2F2" height="6.498" id="XMLID_22418_" transform="matrix(0.6796 0.7336 -0.7336 0.6796 143.0045 -148.1137)" width="1.083" x="240.529" y="86.414"/></g><path d="M245.653,89.828l-1.831-1.976l-4.767,4.416l1.831,1.976c1.219,1.316,3.275,1.395,4.591,0.176    C246.793,93.2,246.872,91.144,245.653,89.828z" fill="#464E58"/><g id="XMLID_22408_"><g id="XMLID_22413_"><path d="M209.611,55.701l4.858,3.653c0.238,0.256,0.786,0.135,1.227-0.273      c0.438-0.405,0.601-0.943,0.363-1.2L209.611,55.701L209.611,55.701z" fill="#FDDA7F" id="XMLID_22414_"/></g><g id="XMLID_22411_"><path d="M209.611,55.701l3.271,5.123c0.238,0.256,0.786,0.135,1.224-0.271      c0.441-0.408,0.601-0.943,0.363-1.2L209.611,55.701L209.611,55.701z" fill="#F7BB52" id="XMLID_22412_"/></g><g id="XMLID_22409_"><path d="M209.611,55.701l1.681,6.596c0.238,0.256,0.786,0.135,1.227-0.273      c0.437-0.405,0.601-0.943,0.363-1.2L209.611,55.701L209.611,55.701z" fill="#FDDA7F" id="XMLID_22410_"/></g></g><g id="XMLID_22405_"><g id="XMLID_22406_"><path d="M239.909,90l-27.027-29.176c0.238,0.256,0.786,0.135,1.224-0.271      c0.441-0.408,0.601-0.943,0.363-1.2l27.027,29.176L239.909,90z" fill="#DA664B" id="XMLID_22407_"/></g></g><g id="XMLID_22402_"><g id="XMLID_22403_"><path d="M209.931,56.954l-0.319-1.252l1.224,0.414c-0.066,0.195-0.183,0.383-0.346,0.534      C210.327,56.801,210.131,56.904,209.931,56.954z" fill="#464E58" id="XMLID_22404_"/></g></g><path d="M211.38,66.047" fill="#F37C5A" id="XMLID_22401_"/></g><g id="XMLID_573_"><g id="XMLID_574_"><g id="XMLID_575_"><circle cx="230.536" cy="136.787" fill="#F2F2F2" id="XMLID_22399_" r="13.9"/></g></g><g id="XMLID_576_"><g id="XMLID_577_"><path d="M247.834,134.205h-5.235v5.163h5.235c1.42,0,2.582-1.162,2.582-2.582      C250.415,135.367,249.253,134.205,247.834,134.205z" fill="#F2F2F2" id="XMLID_578_"/></g></g><circle cx="230.536" cy="136.787" fill="#F37C5A" r="11.031"/><g id="XMLID_581_" opacity="0.5"><g id="XMLID_582_"><path d="M222.252,139.021c0,2.974,1.237,5.66,3.222,7.571c-3.544-1.836-5.969-5.536-5.969-9.804      c0-6.093,4.937-11.034,11.03-11.034c4.264,0,7.968,2.421,9.804,5.965c-1.91-1.985-4.597-3.218-7.571-3.218      C226.959,128.501,222.252,133.212,222.252,139.021z" fill="#DA664B" id="XMLID_583_"/></g></g></g></g></svg>