<?xml version="1.0" ?><!DOCTYPE svg  PUBLIC '-//W3C//DTD SVG 1.1//EN'  'http://www.w3.org/Graphics/SVG/1.1/DTD/svg11.dtd'><svg enable-background="new 0 0 258 258" id="Layer_1" version="1.1" viewBox="0 0 258 258" xml:space="preserve" xmlns="http://www.w3.org/2000/svg" xmlns:xlink="http://www.w3.org/1999/xlink"><g id="XMLID_3680_"><path d="M129,1C58.31,1,1,58.31,1,129c0,70.7,57.31,128,128,128s128-57.3,128-128C257,58.31,199.69,1,129,1z" fill="#FDDA7F"/><path d="M70.388,152.225l0.294-5.315l-6.103-1.839c-0.355-1.916-0.989-3.708-1.885-5.361l3.615-5.253l-3.553-3.971   l-5.624,3.013c-1.545-1.066-3.26-1.901-5.114-2.457l-1.159-6.273l-5.315-0.294l-1.838,6.103c-1.9,0.34-3.708,0.989-5.361,1.885   l-5.253-3.615l-3.971,3.554l3.013,5.624c-1.066,1.545-1.9,3.26-2.456,5.114l-6.257,1.159l-0.294,5.315l6.103,1.838   c0.324,1.9,0.973,3.708,1.885,5.361l-3.631,5.253l3.553,3.971l5.624-3.028c1.545,1.081,3.26,1.916,5.114,2.472l1.159,6.258   l5.315,0.293l1.838-6.103c1.9-0.34,3.708-0.973,5.361-1.869l5.253,3.615l3.97-3.569l-3.028-5.608   c1.081-1.545,1.931-3.26,2.472-5.114L70.388,152.225z M54.151,148.671c-0.232,4.002-3.662,7.061-7.663,6.844   c-4.001-0.232-7.061-3.646-6.844-7.648c0.232-4.001,3.646-7.076,7.647-6.86C51.292,141.225,54.367,144.654,54.151,148.671z" fill="#464E58"/><g id="XMLID_16503_"><g id="XMLID_16504_"><g id="XMLID_3694_"><path d="M246.343,164.335l0.56-10.137l-11.64-3.507c-0.678-3.653-1.886-7.072-3.595-10.225      l6.896-10.019l-6.778-7.574l-10.727,5.747c-2.947-2.034-6.218-3.625-9.754-4.686l-2.21-11.964l-10.137-0.56l-3.507,11.64      c-3.625,0.648-7.073,1.886-10.226,3.595l-10.019-6.896l-7.573,6.778l5.746,10.727c-2.033,2.947-3.625,6.217-4.685,9.754      l-11.935,2.21l-0.56,10.138l11.64,3.507c0.619,3.625,1.857,7.072,3.595,10.226l-6.925,10.019l6.778,7.574l10.727-5.776      c2.947,2.063,6.218,3.654,9.754,4.715l2.21,11.936l10.137,0.56l3.507-11.641c3.625-0.648,7.072-1.856,10.226-3.566l10.019,6.896      l7.573-6.807l-5.776-10.697c2.063-2.947,3.684-6.218,4.715-9.754L246.343,164.335z M200.755,170.612      c-7.633-0.443-13.467-6.955-13.055-14.588c0.442-7.632,6.954-13.497,14.587-13.084c7.633,0.413,13.497,6.954,13.084,14.616      C214.93,165.19,208.387,171.025,200.755,170.612z" fill="#F7BB52" id="XMLID_3695_"/></g></g></g><g id="XMLID_3688_"><g id="XMLID_3689_"><path d="M173.728,55.721H83.96c-3.891,0-7.043,3.153-7.043,7.033v165.862c0,3.89,3.152,7.043,7.043,7.043h89.769     c3.891,0,7.043-3.153,7.043-7.043V62.753C180.771,58.873,177.619,55.721,173.728,55.721z" fill="#464E58"/><g id="XMLID_3699_"><g id="XMLID_3700_"><g id="XMLID_3701_"><g id="XMLID_3702_"><rect fill="#FFFFFF" height="128.273" width="96.318" x="80.682" y="73.816"/><g id="XMLID_3705_"><path d="M139.624,65.632c0,1.188-0.965,2.143-2.143,2.143h-17.279          c-1.177,0-2.143-0.955-2.143-2.143c0-1.188,0.965-2.153,2.143-2.153h17.279C138.658,63.479,139.624,64.444,139.624,65.632z" fill="#25313B" id="XMLID_3706_"/></g><path d="M128.838,210.118c-4.834,0-8.752,3.919-8.752,8.753c0,4.84,3.919,8.759,8.752,8.759         c4.84,0,8.759-3.919,8.759-8.759C137.597,214.036,133.678,210.118,128.838,210.118z" fill="#25313B"/></g></g></g></g></g><g id="XMLID_3709_"><circle cx="95.037" cy="187.99" fill="#F2F2F2" r="10.007"/><circle cx="117.575" cy="187.99" fill="#F2F2F2" r="10.007"/><circle cx="140.113" cy="187.99" fill="#F2F2F2" r="10.007"/><circle cx="162.651" cy="187.99" fill="#F2F2F2" r="10.007"/></g></g><g id="XMLID_3714_"><circle cx="118.306" cy="143.56" fill="#7CCEDC" r="17.626"/><g id="XMLID_3716_"><g id="XMLID_3717_"><g id="XMLID_3718_"><path d="M118.482,135.98h1.673l-2.025,15.16h-1.674L118.482,135.98z" fill="#FFFFFF" id="XMLID_3719_"/></g></g><g id="XMLID_3721_"><path d="M105.584,144.623v-2.108l7.883-3.649v1.908l-5.891,2.66v0.185l5.891,2.727v1.908      L105.584,144.623z" fill="#FFFFFF" id="XMLID_3722_"/><path d="M131.027,142.515v2.108l-7.883,3.631v-1.908l5.891-2.727v-0.185l-5.891-2.66v-1.908      L131.027,142.515z" fill="#FFFFFF" id="XMLID_3724_"/></g></g></g><g id="XMLID_3726_"><polygon fill="#F37C5A" points="190.61,38.227 190.61,68.266 196.419,68.266 196.419,78.787 212.336,68.266 236.176,68.266     236.176,38.227   "/><g><circle cx="201.551" cy="53.247" fill="#FFFFFF" r="3.631"/><circle cx="213.393" cy="53.247" fill="#FFFFFF" r="3.631"/><circle cx="225.235" cy="53.247" fill="#FFFFFF" r="3.631"/></g></g><g id="XMLID_3731_"><g id="XMLID_3732_"><g id="XMLID_3733_"><g id="XMLID_3734_"><rect fill="#7CCEDC" height="64.148" width="82.681" x="8.625" y="32.588"/><g id="XMLID_3738_"><rect fill="#464E58" height="12.311" id="XMLID_3739_" width="82.678" x="8.625" y="20.279"/></g><g id="XMLID_3740_"><g id="XMLID_3741_"><rect fill="#FFFFFF" height="2.416" id="XMLID_3742_" width="48.198" x="37.524" y="25.226"/></g><circle cx="16.302" cy="26.434" fill="#F37C5A" r="2.097"/><circle cx="22.936" cy="26.434" fill="#FDDA7F" r="2.097"/><circle cx="29.57" cy="26.434" fill="#7CCEDC" r="2.097"/></g><g id="XMLID_3746_"><g id="XMLID_3747_"><rect fill="#464E58" height="4.192" id="XMLID_3748_" width="10.903" x="44.514" y="82.572"/></g></g></g></g><g id="XMLID_3749_"><g id="XMLID_3750_"><path d="M60.563,49.117c0,2.821-1.107,5.38-2.916,7.284c-2.012-7.993-13.349-8.008-15.365,0       c-1.809-1.904-2.916-4.463-2.916-7.284c0-5.856,4.749-10.592,10.593-10.592C55.814,38.524,60.563,43.261,60.563,49.117z" fill="#FFFFFF" id="XMLID_3751_"/></g><g id="XMLID_3752_"><circle cx="49.964" cy="44.674" fill="#464E58" id="XMLID_16438_" r="3.419"/></g></g></g><g id="XMLID_3753_"><g id="XMLID_3754_"><g id="XMLID_3755_"><rect fill="#FFFFFF" height="4.165" id="XMLID_3756_" width="31.877" x="34.027" y="74.093"/></g></g><g id="XMLID_3757_"><path d="M44.467,76.834l-0.572-0.385l0.048,0.687h-0.409l0.048-0.693l-0.572,0.386      l-0.205-0.349l0.614-0.307l-0.614-0.301l0.205-0.355l0.566,0.379l-0.042-0.68h0.409l-0.042,0.68l0.566-0.373l0.205,0.349      l-0.62,0.301l0.62,0.307L44.467,76.834z" fill="#F2F2F2" id="XMLID_3758_"/><path d="M47.58,76.834l-0.572-0.385l0.048,0.687h-0.409l0.048-0.693l-0.572,0.386l-0.205-0.349      l0.614-0.307l-0.614-0.301l0.205-0.355l0.566,0.379l-0.042-0.68h0.409l-0.042,0.68l0.566-0.373l0.205,0.349l-0.62,0.301      l0.62,0.307L47.58,76.834z" fill="#F2F2F2" id="XMLID_3760_"/><path d="M50.694,76.834l-0.572-0.385l0.048,0.687H49.76l0.048-0.693l-0.572,0.386l-0.205-0.349      l0.614-0.307l-0.614-0.301l0.205-0.355l0.566,0.379l-0.042-0.68h0.409l-0.042,0.68l0.566-0.373l0.205,0.349l-0.62,0.301      l0.62,0.307L50.694,76.834z" fill="#F2F2F2" id="XMLID_3762_"/><path d="M53.807,76.834l-0.572-0.385l0.048,0.687h-0.409l0.048-0.693l-0.572,0.386      l-0.205-0.349l0.614-0.307l-0.614-0.301l0.205-0.355l0.566,0.379l-0.042-0.68h0.409l-0.042,0.68l0.566-0.373l0.205,0.349      l-0.62,0.301l0.62,0.307L53.807,76.834z" fill="#F2F2F2" id="XMLID_3764_"/><path d="M56.921,76.834l-0.572-0.385l0.048,0.687h-0.409l0.048-0.693l-0.572,0.386      l-0.205-0.349l0.614-0.307l-0.614-0.301l0.205-0.355l0.566,0.379l-0.042-0.68h0.409l-0.042,0.68l0.566-0.373l0.205,0.349      l-0.62,0.301l0.62,0.307L56.921,76.834z" fill="#F2F2F2" id="XMLID_3766_"/></g></g><g id="XMLID_3768_"><g id="XMLID_3769_"><g id="XMLID_3770_"><g id="XMLID_3771_"><rect fill="#FFFFFF" height="4.165" id="XMLID_3772_" width="31.877" x="34.027" y="66.342"/></g></g></g><g id="XMLID_3773_"><g id="XMLID_3774_"><path d="M44.467,69.083l-0.572-0.385l0.048,0.687h-0.409l0.048-0.693l-0.572,0.386       l-0.205-0.349l0.614-0.307l-0.614-0.301l0.205-0.355l0.566,0.379l-0.042-0.68h0.409l-0.042,0.68l0.566-0.373l0.205,0.349       l-0.62,0.301l0.62,0.307L44.467,69.083z" fill="#F2F2F2" id="XMLID_3775_"/><path d="M47.58,69.083l-0.572-0.385l0.048,0.687h-0.409l0.048-0.693l-0.572,0.386       l-0.205-0.349l0.614-0.307l-0.614-0.301l0.205-0.355l0.566,0.379l-0.042-0.68h0.409l-0.042,0.68l0.566-0.373l0.205,0.349       l-0.62,0.301l0.62,0.307L47.58,69.083z" fill="#F2F2F2" id="XMLID_3777_"/><path d="M50.694,69.083l-0.572-0.385l0.048,0.687H49.76l0.048-0.693l-0.572,0.386       l-0.205-0.349l0.614-0.307l-0.614-0.301l0.205-0.355l0.566,0.379l-0.042-0.68h0.409l-0.042,0.68l0.566-0.373l0.205,0.349       l-0.62,0.301l0.62,0.307L50.694,69.083z" fill="#F2F2F2" id="XMLID_3779_"/><path d="M53.807,69.083l-0.572-0.385l0.048,0.687h-0.409l0.048-0.693l-0.572,0.386       l-0.205-0.349l0.614-0.307l-0.614-0.301l0.205-0.355l0.566,0.379l-0.042-0.68h0.409l-0.042,0.68l0.566-0.373l0.205,0.349       l-0.62,0.301l0.62,0.307L53.807,69.083z" fill="#F2F2F2" id="XMLID_3781_"/><path d="M56.921,69.083l-0.572-0.385l0.048,0.687h-0.409l0.048-0.693l-0.572,0.386       l-0.205-0.349l0.614-0.307l-0.614-0.301l0.205-0.355l0.566,0.379l-0.042-0.68h0.409l-0.042,0.68l0.566-0.373l0.205,0.349       l-0.62,0.301l0.62,0.307L56.921,69.083z" fill="#F2F2F2" id="XMLID_3783_"/></g></g></g></g><g id="XMLID_3785_"><g id="XMLID_3786_"><rect fill="#F37C5A" height="48.307" id="XMLID_16401_" width="70.503" x="27.473" y="177.206"/></g><polygon fill="#FFFFFF" points="54.338,189.861 54.338,212.858 71.111,201.36   "/></g><g id="XMLID_3788_"><g id="XMLID_3789_"><rect fill="#F2F2F2" height="16.319" id="XMLID_3790_" width="104.803" x="111.589" y="89.376"/><g id="XMLID_3791_"><rect fill="#464E58" height="16.319" id="XMLID_3792_" width="17.002" x="199.39" y="89.376"/></g></g><g id="XMLID_16388_"><g id="XMLID_16389_"><g id="XMLID_16390_"><path d="M203.702,93.178c-1.721,1.673-1.754,4.434-0.081,6.155       c1.478,1.521,3.8,1.728,5.502,0.601l2.859,2.941c0.315,0.324,0.838,0.331,1.162,0.016c0.324-0.315,0.332-0.838,0.016-1.162       l-2.859-2.941c1.174-1.669,1.039-4.002-0.439-5.523C208.19,91.544,205.423,91.505,203.702,93.178z M208.624,98.241       c-1.067,1.037-2.787,1.013-3.824-0.054c-1.043-1.073-1.019-2.793,0.048-3.83c1.073-1.043,2.793-1.018,3.836,0.054       C209.721,95.478,209.697,97.198,208.624,98.241z" fill="#FFFFFF" id="XMLID_16391_"/></g></g></g></g><g id="XMLID_3793_"><circle cx="118.306" cy="28.738" fill="#F37C5A" r="15.5"/><g id="XMLID_3795_"><g id="XMLID_3796_"><path d="M124.444,21.732v10.621h-0.014c0.049,0.645-0.173,1.303-0.666,1.796      c-0.908,0.901-2.378,0.901-3.286,0c-0.901-0.908-0.901-2.378,0-3.286c0.659-0.659,1.615-0.832,2.44-0.534V26.01l-7.328,1.185      c0,0,0,6.912,0,6.967c0,1.283-1.04,2.323-2.322,2.323s-2.322-1.04-2.322-2.323s1.04-2.315,2.322-2.315      c0.284,0,0.548,0.049,0.797,0.139v-8.582L124.444,21.732z" fill="#FFFFFF" id="XMLID_3797_"/></g></g></g></g></svg>