<?xml version="1.0" ?><!DOCTYPE svg  PUBLIC '-//W3C//DTD SVG 1.1//EN'  'http://www.w3.org/Graphics/SVG/1.1/DTD/svg11.dtd'><svg enable-background="new 0 0 258 258" id="Layer_1" version="1.1" viewBox="0 0 258 258" xml:space="preserve" xmlns="http://www.w3.org/2000/svg" xmlns:xlink="http://www.w3.org/1999/xlink"><g id="XMLID_2786_"><circle cx="127.726" cy="129.198" fill="#F37C5A" r="126.726"/><g id="XMLID_2793_"><g id="XMLID_2794_"><g id="XMLID_2795_"><g id="XMLID_2796_"><g id="XMLID_2797_"><g id="XMLID_2798_"><path d="M43.383,223.758c22.403,20,51.948,32.166,84.343,32.166s61.94-12.166,84.343-32.166         H43.383z" fill="#DA664B" id="XMLID_2799_"/></g></g></g></g></g></g><g id="XMLID_2800_"><g id="XMLID_2801_"><polygon fill="#F2F2F2" id="XMLID_2802_" points="106.863,201.166 104.005,220.486 151.446,220.486 148.589,201.166    "/></g><polygon fill="#DAD9D8" id="XMLID_2803_" opacity="0.3" points="151.446,220.486 148.589,201.166 106.863,201.166     106.565,203.181 123.87,220.486   "/><g id="XMLID_2804_"><path d="M219.835,78.347v102.248H35.617V78.347c0-2.782,2.264-5.037,5.046-5.037h174.126     C217.571,73.31,219.835,75.564,219.835,78.347z" fill="#464E58" id="XMLID_2805_"/><rect fill="#FFFFFF" height="92.737" id="XMLID_2806_" width="169.67" x="42.891" y="80.583"/><g id="XMLID_2807_"><g id="XMLID_2808_"><g id="XMLID_2809_"><rect fill="#464E58" height="2.737" id="XMLID_2810_" width="72.299" x="51.405" y="102.348"/></g><g id="XMLID_2811_"><rect fill="#F2F2F2" height="2.737" id="XMLID_2812_" width="72.299" x="51.405" y="109.803"/></g><g id="XMLID_2813_"><rect fill="#F2F2F2" height="2.737" id="XMLID_2814_" width="45.556" x="51.405" y="117.258"/></g></g><g id="XMLID_2815_"><g id="XMLID_2816_"><rect fill="#F2F2F2" height="62.378" id="XMLID_2817_" width="74.231" x="129.816" y="102.348"/></g></g></g><g id="XMLID_2818_"><rect fill="#7CCEDC" height="13.169" id="XMLID_2819_" width="169.67" x="42.891" y="80.583"/></g></g><path d="M35.617,180.595v17.54c0,2.791,2.264,5.046,5.046,5.046h174.125c2.782,0,5.047-2.255,5.047-5.046v-17.54    H35.617z" fill="#FFFFFF"/><circle cx="127.726" cy="191.888" fill="#464E58" r="4.021"/><g id="XMLID_2822_"><rect fill="#FFFFFF" height="4.456" id="XMLID_2823_" width="62.687" x="96.382" y="219.301"/></g></g><g id="XMLID_2824_"><g id="XMLID_2825_"><rect fill="#F2F2F2" height="33.345" id="XMLID_18205_" width="56.935" x="182.947" y="29.818"/></g><g id="XMLID_2826_"><g id="XMLID_2827_"><g id="XMLID_2828_"><path d="M212.083,36.651h2.159l-3.495,19.678h-2.159L212.083,36.651z" fill="#464E58" id="XMLID_2829_"/></g></g><g id="XMLID_2831_"><path d="M196.33,47.861v-2.719l10.166-4.705v2.461l-7.598,3.43v0.239l7.598,3.516v2.461      L196.33,47.861z" fill="#464E58" id="XMLID_2832_"/><path d="M226.499,45.142v2.719l-10.166,4.683v-2.461l7.596-3.516v-0.239l-7.596-3.43v-2.461      L226.499,45.142z" fill="#464E58" id="XMLID_2834_"/></g></g></g><g id="XMLID_2836_"><g id="XMLID_2837_"><g id="XMLID_2838_"><path d="M166.931,40.036c0,5.539-4.495,10.034-10.039,10.034h-38.626      c-6.076,0-11.002-4.926-11.002-11.002c0-5.261,3.694-9.66,8.63-10.743c-2.569-9.009,4.221-18.036,13.632-18.036      c4.868,0,9.162,2.453,11.716,6.191c2.267-0.623,4.725-0.676,7.164-0.048c6.392,1.648,10.614,7.446,10.518,13.767      C163.495,31.142,166.931,35.186,166.931,40.036z" fill="#FFFFFF" id="XMLID_2839_"/></g></g><g id="XMLID_2840_"><polygon fill="#464E58" id="XMLID_2841_" points="146.499,46.608 140.608,46.608 140.608,56.257 133.596,56.257 133.596,46.608      127.705,46.608 137.107,33.323    "/></g></g><g id="XMLID_2842_"><g id="XMLID_2843_"><g id="XMLID_2844_"><g id="XMLID_2845_"><rect fill="#F2F2F2" height="62.345" width="78.02" x="11.871" y="2.076"/><g id="XMLID_2847_"><g id="XMLID_2848_"><rect fill="#464E58" height="9.003" id="XMLID_2849_" width="78.02" x="11.871" y="2.076"/></g><g id="XMLID_2850_"><g id="XMLID_2851_"><rect fill="#FFFFFF" height="2.717" id="XMLID_2852_" width="46.864" x="37.795" y="5.219"/></g><g id="XMLID_2853_"><circle cx="18.911" cy="6.577" fill="#F37C5A" r="1.808"/><circle cx="24.887" cy="6.577" fill="#7CCEDC" r="1.808"/><circle cx="30.864" cy="6.577" fill="#FDDA7F" r="1.808"/></g></g></g></g></g></g><g id="XMLID_18153_"><g id="XMLID_18164_"><g id="XMLID_18165_"><path d="M52.791,23.314l-2.542,2.276l1.932,3.599c-0.707,1.016-1.235,2.126-1.576,3.284       l-4.017,0.737l-0.188,3.411l3.911,1.182c0.216,1.184,0.615,2.341,1.206,3.429l-2.316,3.365l2.276,2.542l3.599-1.932       c1.011,0.711,2.126,1.235,3.284,1.576l0.737,4.017l3.411,0.188l1.174-3.911c1.188-0.212,2.349-0.614,3.437-1.206l3.365,2.316       l2.542-2.276l-1.932-3.599c0.707-1.016,1.231-2.122,1.576-3.275l4.017-0.745l0.188-3.411l-3.911-1.174       c-0.212-1.188-0.61-2.354-1.206-3.437l2.316-3.365l-2.277-2.542l-3.599,1.932c-1.016-0.707-2.122-1.231-3.275-1.576       l-0.745-4.017l-3.411-0.188l-1.182,3.911c-1.184,0.216-2.341,0.615-3.429,1.206L52.791,23.314z M65.106,32.649       c1.714,1.914,1.547,4.855-0.367,6.569c-1.914,1.714-4.85,1.552-6.564-0.362s-1.557-4.855,0.357-6.569       C60.446,30.573,63.392,30.735,65.106,32.649z" fill="#F37C5A" id="XMLID_18166_"/></g></g><g id="XMLID_18159_"><g id="XMLID_18160_"><path d="M26.411,38.633l-1.164,2.432l2.502,2.04c-0.208,0.956-0.256,1.926-0.154,2.874       l-2.707,1.756l0.897,2.546l3.212-0.324c0.517,0.799,1.159,1.522,1.92,2.136l-0.67,3.158l2.432,1.164l2.04-2.502       c0.954,0.212,1.926,0.257,2.874,0.154l1.756,2.707l2.546-0.897l-0.33-3.21c0.803-0.515,1.528-1.161,2.142-1.922l3.158,0.67       l1.164-2.432l-2.502-2.04c0.208-0.956,0.254-1.922,0.156-2.868l2.705-1.762l-0.897-2.546l-3.21,0.33       c-0.515-0.803-1.159-1.532-1.922-2.142l0.669-3.158l-2.432-1.164l-2.04,2.502c-0.956-0.208-1.922-0.254-2.868-0.156       l-1.762-2.705l-2.546,0.897l0.324,3.212c-0.799,0.517-1.522,1.159-2.136,1.92L26.411,38.633z M38.229,41.71       c1.831,0.877,2.601,3.073,1.725,4.904c-0.877,1.831-3.068,2.604-4.899,1.727c-1.831-0.877-2.609-3.071-1.732-4.902       C34.199,41.608,36.397,40.833,38.229,41.71z" fill="#464E58" id="XMLID_18161_"/></g></g><g id="XMLID_18154_"><g id="XMLID_18155_"><path d="M33.764,20.812l-0.751,1.759l1.835,1.369c-0.118,0.684-0.123,1.372-0.022,2.041       l-1.865,1.327l0.713,1.776l2.266-0.327c0.391,0.55,0.867,1.043,1.426,1.455l-0.378,2.258l1.759,0.751l1.369-1.835       c0.682,0.121,1.372,0.123,2.041,0.022l1.326,1.865l1.777-0.713l-0.331-2.264c0.553-0.389,1.047-0.869,1.459-1.427l2.258,0.378       l0.751-1.759l-1.835-1.369c0.118-0.684,0.122-1.369,0.024-2.037l1.863-1.331l-0.713-1.776l-2.264,0.331       c-0.389-0.553-0.868-1.05-1.427-1.459l0.378-2.258l-1.759-0.751l-1.369,1.835c-0.684-0.118-1.369-0.122-2.037-0.024       l-1.331-1.863l-1.776,0.713l0.327,2.266c-0.55,0.391-1.043,0.867-1.455,1.425L33.764,20.812z M42.231,22.633       c1.324,0.566,1.937,2.098,1.371,3.422c-0.565,1.324-2.095,1.938-3.419,1.373c-1.324-0.566-1.942-2.096-1.376-3.42       C39.372,22.683,40.907,22.067,42.231,22.633z" fill="#FDDA7F" id="XMLID_18156_"/></g></g></g></g><g id="XMLID_2857_"><g id="XMLID_2858_"><path d="M170.472,125.855v89.088c0,4.868,3.946,8.815,8.815,8.815h3.319c4.867,0,8.813-3.946,8.813-8.813h54.531     v-89.09H170.472z" fill="#FDDA7F"/><g id="XMLID_2861_"><g id="XMLID_2862_"><path d="M257,214.945c0,4.822-3.861,8.722-8.663,8.812h-69.05c4.871,0,8.811-3.94,8.811-8.812       H257z" fill="#464E58" id="XMLID_2863_"/></g></g></g><g id="XMLID_2864_"><g id="XMLID_2865_"><g id="XMLID_2866_"><rect fill="#F37C5A" height="1.493" id="XMLID_2867_" width="5.692" x="196.845" y="131.552"/><rect fill="#F7BB52" height="1.493" id="XMLID_2868_" width="5.004" x="175.422" y="131.552"/><rect fill="#F7BB52" height="1.493" id="XMLID_2869_" width="12.561" x="182.226" y="131.552"/></g></g><g id="XMLID_2870_"><g id="XMLID_2871_"><rect fill="#F37C5A" height="1.493" id="XMLID_2872_" width="10.5" x="175.422" y="135.61"/><g id="XMLID_2873_"><rect fill="#F7BB52" height="1.485" id="XMLID_2874_" width="4.198" x="205.949" y="135.614"/></g><g id="XMLID_2875_"><rect fill="#F7BB52" height="1.485" id="XMLID_2876_" width="16.466" x="187.583" y="135.614"/></g></g><g id="XMLID_2877_"><rect fill="#F7BB52" height="1.493" id="XMLID_2878_" width="8.536" x="216.214" y="139.669"/><rect fill="#F37C5A" height="1.493" id="XMLID_18133_" width="11.06" x="196.845" y="139.669"/><rect fill="#F7BB52" height="1.493" id="XMLID_2879_" width="5.004" x="175.422" y="139.669"/><rect fill="#F7BB52" height="1.493" id="XMLID_2880_" width="12.561" x="182.226" y="139.669"/><rect fill="#F7BB52" height="1.493" id="XMLID_18130_" width="4.352" x="209.804" y="139.669"/></g></g><g id="XMLID_2881_"><g id="XMLID_2882_"><rect fill="#F7BB52" height="1.493" id="XMLID_2883_" width="10.5" x="175.422" y="143.727"/><g id="XMLID_2884_"><rect fill="#F7BB52" height="1.485" id="XMLID_2885_" width="13.276" x="205.949" y="143.731"/><rect fill="#F37C5A" height="1.485" id="XMLID_2886_" width="5.661" x="220.727" y="143.731"/><rect fill="#F7BB52" height="1.485" id="XMLID_2887_" width="5.16" x="227.84" y="143.731"/></g><g id="XMLID_2888_"><rect fill="#F7BB52" height="1.485" id="XMLID_2889_" width="16.466" x="187.583" y="143.731"/></g></g><g id="XMLID_2890_"><rect fill="#F7BB52" height="1.493" id="XMLID_2891_" width="5.004" x="175.422" y="147.786"/><rect fill="#F37C5A" height="1.493" id="XMLID_2892_" width="8.78" x="182.226" y="147.786"/></g></g><g id="XMLID_2893_"><g id="XMLID_2894_"><rect fill="#F7BB52" height="1.493" id="XMLID_2895_" width="10.5" x="175.422" y="151.845"/><g id="XMLID_2896_"><rect fill="#F7BB52" height="1.485" id="XMLID_2897_" width="9.148" x="205.949" y="151.848"/></g><g id="XMLID_2898_"><rect fill="#F7BB52" height="1.485" id="XMLID_2899_" width="16.466" x="187.583" y="151.848"/></g></g><g id="XMLID_2900_"><rect fill="#F7BB52" height="1.493" id="XMLID_2901_" width="11.918" x="216.214" y="155.903"/><rect fill="#F7BB52" height="1.493" id="XMLID_18108_" width="11.06" x="196.845" y="155.903"/><rect fill="#F7BB52" height="1.493" id="XMLID_2902_" width="5.004" x="175.422" y="155.903"/><rect fill="#F7BB52" height="1.493" id="XMLID_2903_" width="12.561" x="182.226" y="155.903"/><rect fill="#F37C5A" height="1.493" id="XMLID_18105_" width="4.352" x="209.804" y="155.903"/></g></g><g id="XMLID_2904_"><g id="XMLID_2905_"><rect fill="#F7BB52" height="1.493" id="XMLID_2906_" width="10.5" x="175.422" y="159.962"/><g id="XMLID_2907_"><rect fill="#F37C5A" height="1.485" id="XMLID_2908_" width="8.044" x="187.583" y="159.965"/></g></g><g id="XMLID_2909_"><rect fill="#F7BB52" height="1.493" id="XMLID_2910_" width="5.004" x="175.422" y="164.02"/><rect fill="#F7BB52" height="1.493" id="XMLID_2911_" width="6.883" x="182.226" y="164.02"/></g></g><g id="XMLID_2912_"><g id="XMLID_2913_"><rect fill="#F7BB52" height="1.493" id="XMLID_2914_" width="10.5" x="175.422" y="168.079"/><g id="XMLID_2915_"><rect fill="#F37C5A" height="1.485" id="XMLID_2916_" width="3.29" x="205.949" y="168.082"/></g><g id="XMLID_2917_"><rect fill="#F7BB52" height="1.485" id="XMLID_2918_" width="16.466" x="187.583" y="168.082"/></g></g><g id="XMLID_2919_"><rect fill="#F7BB52" height="1.493" id="XMLID_18088_" width="13.454" x="216.214" y="172.137"/><rect fill="#F7BB52" height="1.493" id="XMLID_18087_" width="11.06" x="196.845" y="172.137"/><rect fill="#F37C5A" height="1.493" id="XMLID_2920_" width="12.482" x="175.422" y="172.137"/><rect fill="#F7BB52" height="1.493" id="XMLID_2921_" width="5.083" x="189.704" y="172.137"/><rect fill="#F7BB52" height="1.493" id="XMLID_18084_" width="4.352" x="209.804" y="172.137"/></g></g><g id="XMLID_2922_"><g id="XMLID_2923_"><rect fill="#F7BB52" height="1.493" id="XMLID_2924_" width="4.419" x="175.422" y="176.196"/><g id="XMLID_2925_"><rect fill="#F7BB52" height="1.485" id="XMLID_2926_" width="17.754" x="181.503" y="176.199"/><rect fill="#F7BB52" height="1.485" id="XMLID_2927_" width="13.486" x="205.156" y="176.197"/><rect fill="#F37C5A" height="1.485" id="XMLID_2928_" width="3.381" x="200.455" y="176.197"/></g></g><g id="XMLID_2929_"><rect fill="#F7BB52" height="1.493" id="XMLID_2930_" width="7.298" x="216.214" y="180.254"/><rect fill="#F7BB52" height="1.493" id="XMLID_18074_" width="11.06" x="196.845" y="180.255"/><rect fill="#F7BB52" height="1.493" id="XMLID_2931_" width="7.381" x="175.422" y="180.255"/><rect fill="#F37C5A" height="1.493" id="XMLID_2932_" width="5.627" x="184.604" y="180.254"/><rect fill="#F7BB52" height="1.493" id="XMLID_2933_" width="3.306" x="191.481" y="180.254"/><rect fill="#F7BB52" height="1.493" id="XMLID_18070_" width="4.352" x="209.804" y="180.255"/></g></g><g id="XMLID_2934_"><g id="XMLID_2935_"><rect fill="#F37C5A" height="1.493" id="XMLID_2936_" width="3.724" x="175.422" y="184.313"/><rect fill="#F7BB52" height="1.493" id="XMLID_2937_" width="7.566" x="180.477" y="184.313"/><g id="XMLID_2938_"><rect fill="#F7BB52" height="1.485" id="XMLID_2939_" width="9.883" x="189.704" y="184.316"/></g></g><g id="XMLID_2940_"><rect fill="#F37C5A" height="1.493" id="XMLID_2941_" width="7.115" x="196.845" y="188.372"/><rect fill="#F7BB52" height="1.493" id="XMLID_2942_" width="5.004" x="175.422" y="188.372"/><rect fill="#F7BB52" height="1.493" id="XMLID_2943_" width="12.561" x="182.226" y="188.372"/></g></g><g id="XMLID_2944_"><g id="XMLID_2945_"><rect fill="#F7BB52" height="1.493" id="XMLID_2946_" width="8.535" x="175.422" y="192.43"/><rect fill="#F37C5A" height="1.493" id="XMLID_2947_" width="3.554" x="185.319" y="192.43"/><g id="XMLID_2948_"><rect fill="#F7BB52" height="1.485" id="XMLID_2949_" width="9.56" x="205.949" y="192.433"/></g><g id="XMLID_2950_"><rect fill="#F7BB52" height="1.485" id="XMLID_2951_" width="13.514" x="190.534" y="192.434"/></g></g><g id="XMLID_2952_"><rect fill="#F37C5A" height="1.485" id="XMLID_2953_" width="4.719" x="175.426" y="196.493"/></g></g><g id="XMLID_2954_"><g id="XMLID_2955_"><rect fill="#F7BB52" height="1.493" id="XMLID_2956_" width="5.48" x="175.422" y="200.547"/><g id="XMLID_2957_"><g id="XMLID_2958_"><rect fill="#F7BB52" height="1.485" id="XMLID_2959_" width="5.023" x="205.949" y="200.551"/></g><g id="XMLID_2960_"><g id="XMLID_2961_"><rect fill="#F7BB52" height="1.485" id="XMLID_2962_" width="14.055" x="182.563" y="200.551"/></g><rect fill="#F37C5A" height="1.485" id="XMLID_2963_" width="5.89" x="198.159" y="200.551"/></g></g></g><g id="XMLID_2964_"><rect fill="#F7BB52" height="1.493" id="XMLID_2965_" width="8.536" x="216.214" y="204.606"/><g id="XMLID_2966_"><rect fill="#F7BB52" height="1.493" id="XMLID_2967_" width="12.437" x="181.519" y="196.489"/></g><rect fill="#F7BB52" height="1.493" id="XMLID_2968_" width="10.82" x="175.422" y="204.606"/><rect fill="#F37C5A" height="1.493" id="XMLID_2969_" width="5.092" x="188.042" y="204.606"/><g id="XMLID_2970_"><rect fill="#F7BB52" height="1.495" id="XMLID_2971_" width="18.969" x="195.188" y="204.601"/></g></g></g></g></g><g id="XMLID_2972_"><rect fill="#7CCEDC" height="36.506" id="XMLID_2973_" width="72.299" x="51.405" y="128.22"/><polygon fill="#464E58" id="XMLID_2974_" points="123.704,164.726 123.704,155.818 110.213,142.852 90.251,162.037     70.299,142.852 51.405,161.01 51.405,164.726   "/></g><g id="XMLID_2975_"><g id="XMLID_2976_"><g id="XMLID_2977_"><rect fill="#FDDA7F" height="26.281" id="XMLID_18024_" width="41.755" x="23.283" y="106.854"/></g></g><g id="XMLID_2978_"><path d="M34.894,123.793c0.624,0,1.163-0.105,1.614-0.315c0.45-0.21,0.922-0.546,1.415-1.007     l1.168,1.2c-1.138,1.26-2.519,1.891-4.144,1.891c-1.626,0-2.973-0.522-4.045-1.568c-1.071-1.046-1.607-2.368-1.607-3.967     c0-1.599,0.546-2.932,1.638-3.998c1.091-1.066,2.47-1.599,4.136-1.599c1.666,0,3.057,0.614,4.175,1.845l-1.153,1.261     c-0.513-0.492-0.997-0.836-1.454-1.03c-0.456-0.195-0.991-0.293-1.607-0.293c-1.086,0-1.999,0.352-2.737,1.054     s-1.107,1.599-1.107,2.691c0,1.093,0.367,2.005,1.1,2.738C33.02,123.426,33.889,123.793,34.894,123.793z" fill="#FFFFFF" id="XMLID_2979_"/><path d="M44.2,123.951v-3.185h-3.202v-1.576H44.2v-3.151h1.509v3.151h3.202v1.576h-3.202v3.185     H44.2z" fill="#FFFFFF" id="XMLID_2981_"/><path d="M54.314,123.951v-3.185h-3.202v-1.576h3.202v-3.151h1.509v3.151h3.202v1.576h-3.202     v3.185H54.314z" fill="#FFFFFF" id="XMLID_2983_"/></g></g></g></svg>