<?xml version="1.0" ?><!DOCTYPE svg  PUBLIC '-//W3C//DTD SVG 1.1//EN'  'http://www.w3.org/Graphics/SVG/1.1/DTD/svg11.dtd'><svg enable-background="new 0 0 258 258" id="Layer_1" version="1.1" viewBox="0 0 258 258" xml:space="preserve" xmlns="http://www.w3.org/2000/svg" xmlns:xlink="http://www.w3.org/1999/xlink"><g id="XMLID_1925_"><g id="XMLID_1991_"><circle cx="129" cy="129" fill="#F37C5A" r="128"/><g id="XMLID_1994_"><g id="XMLID_1995_"><path d="M129.75,205.203h-1.5v-11.417c0-2.983,2.427-5.41,5.41-5.41h82.898      c2.855,0,5.178-2.322,5.178-5.178c0-2.855-2.323-5.178-5.178-5.178h-56.132c-2.983,0-5.41-2.427-5.41-5.41V90.647      c0-2.155-1.754-3.909-3.91-3.909h-33.514v-1.5h33.514c2.983,0,5.41,2.427,5.41,5.409v81.964c0,2.156,1.754,3.91,3.91,3.91      h56.132c3.682,0,6.678,2.996,6.678,6.678c0,3.682-2.996,6.678-6.678,6.678H133.66c-2.156,0-3.91,1.754-3.91,3.91V205.203z" fill="#464E58" id="XMLID_1996_"/></g></g><g id="XMLID_1997_"><g id="XMLID_1998_"><g id="XMLID_1999_"><g id="XMLID_2000_"><path d="M195.477,204.324v46.871c0,1.696-1.388,3.084-3.084,3.084H65.607        c-1.696,0-3.084-1.388-3.084-3.084v-46.871c0-1.696,1.388-3.07,3.084-3.07h126.785        C194.089,201.254,195.477,202.627,195.477,204.324z" fill="#464E58" id="XMLID_2001_"/></g></g></g><g id="XMLID_2002_"><g id="XMLID_2003_"><rect fill="#25313B" height="8.353" id="XMLID_2004_" width="10.092" x="79.418" y="219.635"/></g><g id="XMLID_2005_"><rect fill="#25313B" height="8.353" id="XMLID_2006_" width="22.817" x="66.693" y="230.771"/></g><g id="XMLID_2007_"><rect fill="#25313B" height="8.353" id="XMLID_2008_" width="10.092" x="168.49" y="219.635"/></g><g id="XMLID_2009_"><rect fill="#25313B" height="8.353" id="XMLID_2010_" width="10.092" x="168.49" y="230.771"/></g><g id="XMLID_2011_"><rect fill="#25313B" height="8.353" id="XMLID_2012_" width="10.092" x="143.041" y="230.771"/></g><g id="XMLID_2013_"><rect fill="#25313B" height="8.353" id="XMLID_2014_" width="10.092" x="117.592" y="230.771"/></g><g id="XMLID_2015_"><rect fill="#25313B" height="8.353" id="XMLID_2016_" width="10.092" x="130.316" y="230.771"/></g><g id="XMLID_2017_"><rect fill="#25313B" height="8.353" id="XMLID_2018_" width="10.092" x="92.142" y="219.635"/></g><g id="XMLID_2019_"><rect fill="#25313B" height="8.353" id="XMLID_2020_" width="10.092" x="92.142" y="230.771"/></g><g id="XMLID_2021_"><rect fill="#25313B" height="8.353" id="XMLID_2022_" width="10.092" x="104.867" y="230.771"/></g><g id="XMLID_2023_"><rect fill="#25313B" height="8.353" id="XMLID_2024_" width="10.092" x="130.316" y="219.635"/></g><g id="XMLID_2025_"><rect fill="#25313B" height="8.353" id="XMLID_2026_" width="10.092" x="117.592" y="219.635"/></g><g id="XMLID_2027_"><rect fill="#25313B" height="8.353" id="XMLID_2028_" width="10.092" x="155.766" y="230.771"/></g><g id="XMLID_2029_"><rect fill="#25313B" height="8.353" id="XMLID_2030_" width="10.092" x="143.041" y="219.635"/></g><g id="XMLID_2031_"><rect fill="#25313B" height="8.353" id="XMLID_2032_" width="10.092" x="104.867" y="219.635"/></g><g id="XMLID_2033_"><rect fill="#25313B" height="8.353" id="XMLID_2034_" width="10.092" x="155.766" y="219.635"/></g><g id="XMLID_2035_"><g id="XMLID_2036_"><rect fill="#25313B" height="8.351" id="XMLID_2037_" width="35.541" x="155.766" y="208.5"/></g></g><g id="XMLID_2038_"><g id="XMLID_2039_"><rect fill="#25313B" height="19.485" id="XMLID_2040_" width="10.096" x="181.211" y="219.633"/></g></g><g id="XMLID_2041_"><rect fill="#25313B" height="8.353" id="XMLID_2042_" width="10.092" x="143.041" y="208.497"/></g><g id="XMLID_2043_"><rect fill="#25313B" height="8.353" id="XMLID_2044_" width="10.092" x="79.418" y="208.497"/></g><g id="XMLID_2045_"><rect fill="#25313B" height="8.353" id="XMLID_2046_" width="10.092" x="104.867" y="208.497"/></g><g id="XMLID_2047_"><rect fill="#25313B" height="8.353" id="XMLID_2048_" width="10.092" x="66.693" y="208.497"/></g><g id="XMLID_2049_"><rect fill="#25313B" height="8.353" id="XMLID_2050_" width="10.092" x="117.592" y="208.497"/></g><g id="XMLID_2051_"><rect fill="#25313B" height="8.353" id="XMLID_2052_" width="10.092" x="130.316" y="208.497"/></g><g id="XMLID_2053_"><rect fill="#25313B" height="8.353" id="XMLID_2054_" width="10.092" x="92.142" y="208.497"/></g><g id="XMLID_2055_"><rect fill="#25313B" height="8.353" id="XMLID_2056_" width="10.092" x="66.693" y="219.635"/></g><g id="XMLID_2057_"><g id="XMLID_2058_"><rect fill="#25313B" height="8.353" id="XMLID_2059_" width="10.092" x="181.215" y="241.909"/></g><g id="XMLID_2060_"><rect fill="#25313B" height="8.353" id="XMLID_2061_" width="10.092" x="168.49" y="241.909"/></g><g id="XMLID_2062_"><rect fill="#25313B" height="8.353" id="XMLID_2063_" width="10.092" x="79.418" y="241.909"/></g><g id="XMLID_2064_"><rect fill="#25313B" height="8.353" id="XMLID_2065_" width="10.092" x="155.766" y="241.909"/></g><g id="XMLID_2066_"><rect fill="#25313B" height="8.353" id="XMLID_2067_" width="10.092" x="92.142" y="241.909"/></g><g id="XMLID_2068_"><g id="XMLID_2069_"><rect fill="#25313B" height="8.351" id="XMLID_2070_" width="48.266" x="104.867" y="241.916"/></g></g></g></g><g id="XMLID_2071_"><rect fill="#25313B" height="8.351" id="XMLID_2072_" width="10.096" x="66.693" y="241.916"/></g></g><g id="XMLID_2073_"><g id="XMLID_2074_"><rect fill="#F2F2F2" height="163.091" width="128.978" x="8.445" y="17.994"/><g id="XMLID_2076_"><rect fill="#DAD9D8" height="8.474" id="XMLID_2077_" width="128.978" x="8.445" y="172.611"/></g><g id="XMLID_2078_"><rect fill="#464E58" height="13.976" id="XMLID_2079_" width="128.976" x="8.45" y="4.016"/></g><g id="XMLID_2080_"><g id="XMLID_2081_"><rect fill="#FFFFFF" height="3.837" id="XMLID_2082_" width="83.074" x="47.676" y="9.085"/></g><g id="XMLID_2083_"><circle cx="17.639" cy="11.004" fill="#F37C5A" id="XMLID_19259_" r="2.512"/></g><g id="XMLID_2084_"><circle cx="26.872" cy="11.004" fill="#7CCEDC" id="XMLID_19257_" r="2.512"/></g><g id="XMLID_2085_"><circle cx="36.105" cy="11.004" fill="#FDDA7F" id="XMLID_19255_" r="2.512"/></g></g></g><g id="XMLID_2086_"><g id="XMLID_2087_"><rect fill="#7CCEDC" height="35.991" id="XMLID_2088_" width="114.491" x="16.259" y="25.798"/></g></g><g id="XMLID_2089_"><g id="XMLID_2090_"><rect fill="#F37C5A" height="2.699" id="XMLID_19248_" width="114.491" x="16.259" y="69.517"/></g><g id="XMLID_2091_"><rect fill="#DAD9D8" height="2.699" id="XMLID_19246_" width="114.491" x="16.259" y="76.645"/></g><g id="XMLID_2092_"><rect fill="#DAD9D8" height="2.699" id="XMLID_19244_" width="114.491" x="16.259" y="83.773"/></g><g id="XMLID_2093_"><rect fill="#DAD9D8" height="2.699" id="XMLID_2094_" width="62.988" x="16.259" y="90.901"/></g></g><g id="XMLID_2095_"><circle cx="32.005" cy="118.296" fill="#FDDA7F" r="15.747"/><g id="XMLID_2097_"><g id="XMLID_2098_"><rect fill="#DAD9D8" height="2.699" id="XMLID_2099_" width="31.494" x="16.259" y="142.803"/></g><g id="XMLID_2100_"><rect fill="#DAD9D8" height="2.699" id="XMLID_2101_" width="31.494" x="16.259" y="149.931"/></g><g id="XMLID_2102_"><rect fill="#DAD9D8" height="2.699" id="XMLID_2103_" width="16.795" x="16.259" y="157.059"/></g></g></g><g id="XMLID_2104_"><circle cx="72.935" cy="118.296" fill="#F37C5A" r="15.747"/><g id="XMLID_2106_"><g id="XMLID_2107_"><rect fill="#DAD9D8" height="2.699" id="XMLID_2108_" width="31.494" x="57.188" y="142.803"/></g><g id="XMLID_2109_"><rect fill="#DAD9D8" height="2.699" id="XMLID_2110_" width="31.494" x="57.188" y="149.931"/></g><g id="XMLID_2111_"><rect fill="#DAD9D8" height="2.699" id="XMLID_2112_" width="16.795" x="57.188" y="157.059"/></g></g></g><g id="XMLID_2113_"><circle cx="113.864" cy="118.296" fill="#7CCEDC" r="15.747"/><g id="XMLID_2115_"><g id="XMLID_2116_"><rect fill="#DAD9D8" height="2.699" id="XMLID_2117_" width="31.494" x="98.117" y="142.803"/></g><g id="XMLID_2118_"><rect fill="#DAD9D8" height="2.699" id="XMLID_2119_" width="31.494" x="98.117" y="149.931"/></g><g id="XMLID_2120_"><rect fill="#DAD9D8" height="2.699" id="XMLID_2121_" width="16.795" x="98.117" y="157.059"/></g></g></g></g><g id="XMLID_2122_"><g id="XMLID_2123_"><g id="XMLID_2124_"><rect fill="#464E58" height="38.266" id="XMLID_19208_" width="54.488" x="151.338" y="16.973"/></g></g><g id="XMLID_2125_"><g id="XMLID_2126_"><polygon fill="#FFFFFF" id="XMLID_2127_" points="172.359,28.404 172.359,43.808 184.806,36.106      "/></g></g></g><g id="XMLID_2128_"><g id="XMLID_2129_"><polygon fill="#464E58" id="XMLID_2130_" points="67.1,35.867 67.1,51.719 79.909,43.793     "/></g></g></g><g id="XMLID_2131_"><g id="XMLID_2132_"><g id="XMLID_2133_"><path d="M199.615,61.158v5.701c0,0.73-0.593,1.338-1.323,1.338      c-0.73,0-1.338-0.608-1.338-1.338v-5.701c0-0.745,0.608-1.338,1.338-1.338C199.022,59.82,199.615,60.413,199.615,61.158z" fill="#F2F2F2" id="XMLID_2134_"/></g></g><g id="XMLID_2135_"><g id="XMLID_2136_"><path d="M168.41,89.995h5.311c0.68,0,1.246,0.552,1.246,1.232c0,0.68-0.566,1.246-1.246,1.246      h-5.311c-0.694,0-1.246-0.566-1.246-1.246C167.164,90.547,167.716,89.995,168.41,89.995z" fill="#F2F2F2" id="XMLID_19194_"/></g></g><g id="XMLID_2137_"><g id="XMLID_2138_"><path d="M228.166,92.467h-5.311c-0.68,0-1.246-0.552-1.246-1.232      c0-0.68,0.567-1.246,1.246-1.246h5.311c0.694,0,1.246,0.566,1.246,1.246C229.413,91.915,228.86,92.467,228.166,92.467z" fill="#F2F2F2" id="XMLID_19191_"/></g></g><g id="XMLID_2139_"><g id="XMLID_2140_"><g id="XMLID_2141_"><g id="XMLID_2142_"><path d="M194.97,128.94c0.473,1.488,1.865,2.566,3.509,2.566        c1.644,0,3.036-1.078,3.509-2.566H194.97z" fill="#464E58" id="XMLID_2143_"/></g></g><path d="M197.521,71.536c-10.005,0.387-18.167,8.511-18.597,18.513c-0.246,5.722,1.988,10.926,5.717,14.625      c3.476,3.448,5.846,7.788,7.012,12.476h13.242c1.199-4.728,3.693-9.079,7.189-12.62c3.458-3.502,5.591-8.314,5.591-13.624      C217.674,79.948,208.578,71.109,197.521,71.536z" fill="#FDDA7F"/><g id="XMLID_2148_"><g id="XMLID_2149_"><g id="XMLID_2150_"><path d="M196.328,116.964h0.599c-0.779-6.151-2.841-23.094-3.281-26.709l1.276,0.937         l1.7-1.706l1.667,1.746l1.667-1.746l1.701,1.706l1.277-0.936c-0.443,3.616-2.52,20.564-3.3,26.709h0.599         c0.741-5.84,2.777-22.434,3.458-28.001l-1.973,1.448l-1.771-1.776l-1.657,1.736l-1.658-1.736l-1.769,1.776l-1.971-1.448         C193.598,94.792,195.574,111.011,196.328,116.964z" fill="#464E58" id="XMLID_2151_"/></g></g></g><g id="XMLID_2152_"><g id="XMLID_2153_"><path d="M204.895,117.004v10.596c0,1.018-0.828,1.847-1.847,1.847h-9.55        c-1.018,0-1.847-0.828-1.847-1.847v-10.596H204.895z" fill="#25313B" id="XMLID_2154_"/></g></g><path d="M205.805,116.286h-15.064c-0.516,0-0.938,0.422-0.938,0.938v0.781c0,0.516,0.422,0.938,0.938,0.938      h15.064c0.516,0,0.938-0.422,0.938-0.938v-0.781C206.743,116.709,206.321,116.286,205.805,116.286z" fill="#464E58"/><path d="M205.805,120.305h-15.064c-0.516,0-0.938,0.422-0.938,0.938v0.781c0,0.516,0.422,0.938,0.938,0.938      h15.064c0.516,0,0.938-0.422,0.938-0.938v-0.781C206.743,120.727,206.321,120.305,205.805,120.305z" fill="#464E58"/><path d="M205.805,124.323h-15.064c-0.516,0-0.938,0.422-0.938,0.938v0.781c0,0.516,0.422,0.938,0.938,0.938      h15.064c0.516,0,0.938-0.422,0.938-0.938v-0.781C206.743,124.745,206.321,124.323,205.805,124.323z" fill="#464E58"/></g><g id="XMLID_2161_"><g id="XMLID_2162_"><path d="M178.035,69.23l3.755,3.755c0.481,0.481,0.491,1.272,0.01,1.753       c-0.481,0.481-1.282,0.481-1.762,0l-3.755-3.755c-0.491-0.491-0.481-1.282,0-1.762       C176.764,68.739,177.545,68.739,178.035,69.23z" fill="#F2F2F2" id="XMLID_19164_"/></g></g><g id="XMLID_2163_"><g id="XMLID_2164_"><path d="M176.287,111.484l3.755-3.755c0.481-0.481,1.272-0.491,1.753-0.01       c0.481,0.481,0.481,1.282,0,1.762l-3.755,3.755c-0.491,0.491-1.282,0.481-1.762,0       C175.797,112.756,175.797,111.975,176.287,111.484z" fill="#F2F2F2" id="XMLID_19161_"/></g></g><g id="XMLID_2165_"><g id="XMLID_2166_"><path d="M218.541,113.232l-3.755-3.755c-0.481-0.481-0.491-1.272-0.01-1.753       s1.282-0.481,1.762,0l3.755,3.755c0.491,0.491,0.481,1.282,0,1.762C219.813,113.723,219.032,113.723,218.541,113.232z" fill="#F2F2F2" id="XMLID_19158_"/></g></g><g id="XMLID_2167_"><g id="XMLID_2168_"><path d="M220.289,70.978l-3.755,3.755c-0.481,0.481-1.272,0.491-1.753,0.01       c-0.481-0.481-0.481-1.282,0-1.763l3.755-3.755c0.491-0.491,1.282-0.481,1.762,0C220.78,69.706,220.78,70.488,220.289,70.978z" fill="#F2F2F2" id="XMLID_19155_"/></g></g></g></g><g id="XMLID_19113_"><g id="XMLID_19114_"><g id="XMLID_19115_"><g id="XMLID_19146_"><g id="XMLID_19147_"><g id="XMLID_19148_"><g id="XMLID_19149_"><polygon fill="#F2F2F2" id="XMLID_19150_" points="200.169,160.411 202.397,160.41 202.398,160.41 202.4,149.932           202.4,149.932 200.171,149.932 200.171,149.932 200.169,160.41         "/></g></g></g></g><g id="XMLID_19141_"><g id="XMLID_19142_"><g id="XMLID_19143_"><g id="XMLID_19144_"><path d="M202.398,160.41l6.217-0.001c2.894,0,5.24-2.346,5.24-5.24l0,0          c0.001-2.894-2.345-5.239-5.238-5.239l-6.217,0.001l0,0L202.398,160.41L202.398,160.41z" fill="#464E58" id="XMLID_19145_"/></g></g></g></g><g id="XMLID_19116_"><polygon fill="#7CCEDC" points="200.17,149.932 98.099,149.937 98.097,160.415 200.168,160.411 200.169,160.41        200.171,149.932      "/><g id="XMLID_19131_"><g id="XMLID_19132_"><g id="XMLID_19133_"><g id="XMLID_19134_"><polygon fill="#FDDA7F" id="XMLID_19135_" points="98.097,160.415 86.722,155.177 98.099,149.937          "/></g></g></g></g><polygon fill="#50C6CC" points="200.169,153.425 98.096,153.43 98.095,156.923 200.168,156.918 200.169,156.918        200.169,153.426      "/><g id="XMLID_19121_"><g id="XMLID_19122_"><g id="XMLID_19123_"><g id="XMLID_19124_"><polygon fill="#F7BB52" id="XMLID_19125_" points="98.095,156.923 98.096,153.43 86.722,155.178 86.722,155.178                     "/></g></g></g></g><g id="XMLID_19117_"><g id="XMLID_19118_"><g id="XMLID_19119_"><path d="M89.409,156.412l-2.688-1.235l2.688-1.235          C89.773,154.725,89.773,155.628,89.409,156.412z" fill="#464E58" id="XMLID_19120_"/></g></g></g></g></g></g></g></g></svg>